<svg xmlns="http://www.w3.org/2000/svg" width="1621.756" height="847.29" viewBox="0 0 1621.756 847.29">
  <g id="Group_43" data-name="Group 43" transform="translate(2151.426 -249.621)" opacity="0.05">
    <path id="Path_23" data-name="Path 23" d="M128.894,463.534a1.072,1.072,0,0,0,.054-.133c3.711-17.8-10.158-37.779-25.183-46.273-3.492-1.973-13.231-6.457-15.394-.3-1.127,3.2,2.239,8.049,3.1,10.96,2.222,7.505,2.5,14.749-.812,21.957-9.154-1.282-12.879,6.646-15.805,14.5-9.041-4.542-15.78-1.09-21.644,6.334-4.262-7.522-12.188-8.908-20.473-9.277a1.065,1.065,0,0,0-.544.118.638.638,0,0,0-.709.327c-1.26,2.07-2.483,4.164-3.691,6.267-4.8-6.885-11.263-10.076-18.9-9.07-1.159-7.33-4.24-15-12.3-16.45-.529-.1-1.073-.153-1.614-.214a1.5,1.5,0,0,0,.017-.4A52.346,52.346,0,0,1-4.04,419.49c.935-3.346,4.075-7.623,3.767-11.216-.536-6.24-7.862-4.747-11.989-3.472-17.316,5.345-27.1,22.806-28.729,39.957-14.8,6.5-3.785,33.288,4.419,41.822a.891.891,0,0,0,1.4-.125c-7.685,16.42,19.818,34.268,33.94,37.848a19.818,19.818,0,0,0-.364,6.309c1.1,9.432,10.98,15.741,18.819,19.312A53.473,53.473,0,0,0,45.644,554.4c8.108-.979,16.9-3.758,19.917-12.136a27.317,27.317,0,0,0,1.447-8.219,1.113,1.113,0,0,0,.918.362A54.554,54.554,0,0,0,101.694,521.7c7.362-6.285,9.043-13.649,6.491-21.162a.672.672,0,0,0,.111-.042,48.258,48.258,0,0,0,19.366-22.058C129.549,474.053,131.244,467.99,128.894,463.534ZM95.653,435.127a47.626,47.626,0,0,0-2.574-10.512c-.268-.773-2.173-4.262-1.89-4.919q2.742-1.528,5.49-3.059a22.944,22.944,0,0,1,4.862,2.069c14.225,7.422,26.984,25.682,25.252,42.226-.027-.025-.052-.054-.081-.079-4.146-3.435-11.2-4.323-16.206-5.785-5.778-1.688-11.779-3.846-17.742-4.971A24.172,24.172,0,0,0,95.653,435.127ZM-11.56,407.346c2.106-.33,7.092.007,8.155,2.343.189.411-1.555,3.627-1.745,4.124A53.567,53.567,0,0,0-7.9,423.8a52.67,52.67,0,0,0,.219,18.29c-4.71-.123-9.725.618-14.215.792-5.084.2-10.465-.116-15.48.787a17.858,17.858,0,0,0-1.9.453C-36.044,430.007-28.1,409.945-11.56,407.346Zm-23.529,78.09c-6.528-12.19-21.319-38.549,3.689-39.568q10.863-.443,21.73-.815c5.372-.177,9.813.524,13.071,5.2,1.791,2.576,2.672,5.992,3.639,9.009a27.2,27.2,0,0,0-3.452.987c-12.244,4.39-25.928,11.72-35.107,21.073a18.83,18.83,0,0,0-3.489,4.8A.927.927,0,0,0-35.089,485.436Zm7.955-4.486c6.865-5.839,15.02-10.561,23.1-14.489,5.569-2.7,11.74-5.869,18.069-5.079,5.487.687,9.127,4.444,12.951,8.039-5.844,10.276-11.2,20.852-16.73,31.285-3.283,6.186-8.7,13.758-10.94,21.406C-15.329,516.539-47.016,497.858-27.133,480.951ZM63.92,537.3c-1.686,12.943-15.64,15.451-26.679,14.892a50.747,50.747,0,0,1-24.947-7.83c-4.434-2.869-9.552-6.752-11.007-12.109-1.619-5.972,1.575-12.021,4.232-17.185,8.863-17.215,18.64-34.039,26.718-51.645a1.157,1.157,0,0,0,.5.145c4.51.278,9.8.379,13.738,2.881,5.325,3.383,6.683,10.118,8.285,15.766,2.525,8.908,4.638,17.946,6.28,27.055C62.638,518.134,65.1,528.243,63.92,537.3Zm43.234-29.811c-.721,6.961-5.571,11.359-10.96,15.16a52.781,52.781,0,0,1-28.268,9.235,1.221,1.221,0,0,0-.893.418c-.042-8.019-2.247-16.77-3.509-23.714-2.153-11.846-4.323-25.712-9.611-36.65,3.5-3.268,7.547-7.486,12.668-7.648,5.561-.177,11.277,4.424,15.219,7.852a147.407,147.407,0,0,1,17.444,18.468C102.873,495.087,107.794,501.313,107.154,507.484Zm.108-9.292a33.913,33.913,0,0,0-3.693-6.174c-7.19-9.673-16.6-21.086-27.412-27.078,1.521-2.81,3.093-6.223,5.278-8.44,6.309-6.4,10.517-3.93,17.136-2.146,6.838,1.841,14.577,3.26,21.036,6.189C138.678,469.193,117.179,491.4,107.262,498.193Z" transform="translate(-876.436 470.935)" fill="#fdecce" stroke="#0b314b" stroke-width="1"/>
    <path id="Path_24" data-name="Path 24" d="M-12.091,396.7c0-.017-.015-.025-.017-.039a.836.836,0,0,0,.047-1.026,24.688,24.688,0,0,0-10.5-9.4c-.084-4.289-.625-8.632-.923-12.916.832-.391.719-1.865-.374-1.819-17.653.724-35.493.226-53.1,1.422a.434.434,0,0,0-.477-.1,2.64,2.64,0,0,0-.315.182.434.434,0,0,0-.089.049,6.4,6.4,0,0,0-1.6,1.722c-.672.9-1.351,1.8-1.969,2.739a.538.538,0,0,0-.044.113.7.7,0,0,0-.209.706,50.45,50.45,0,0,0,2.441,6.784c.623,1.489,1.036,3.514,2.544,4.282a.22.22,0,0,0,.317-.13c.62-1.7-.63-3.78-1.245-5.389,4.958-.426,11.506-1.063,13.288,4.557-3.738.126-7.476.258-11.218.423a.637.637,0,0,0-.642.63A.617.617,0,0,0-77,390c-1.277,6.757-3.15,13.433-4.626,20.155,0,.025,0,.047,0,.071a.675.675,0,0,0-.271.472c-3.3,30.522-1.346,62.364-.244,92.987a1.162,1.162,0,0,0,.347.8.907.907,0,0,0,.878.75c18.576,1.1,37.474.037,56.06-.573.032,0,.057-.012.089-.017a.812.812,0,0,0,1.23-.244A196.17,196.17,0,0,0-9.992,479.637a1.162,1.162,0,0,0-.258-1.353A358.781,358.781,0,0,0-12.091,396.7Zm-2.569-1.282c.1.123.2.236.3.362a1.022,1.022,0,0,0-.9.34,106.327,106.327,0,0,0-7.318,8.263c.175-.551.349-1.1.529-1.651.458-1.405,3.1-7.111,2.106-8.128a.554.554,0,0,0,.876-.221.611.611,0,0,0,.167-.305c.627.194,1.25.4,1.865.645A6.216,6.216,0,0,0-14.66,395.415Zm-1.74-2.067c-.079-.02-.16-.044-.239-.061a20.3,20.3,0,0,0-2.623-.431,24.886,24.886,0,0,0-1.565-2.394c-.637-.969-1.3-1.922-1.966-2.867A39.937,39.937,0,0,1-16.4,393.348Zm-6.587-3.868c.308.568.6,1.142.92,1.705a20.878,20.878,0,0,0,1.553,2.655c-1.07.787-1.4,2.694-1.821,3.824-.667,1.774-1.412,3.583-2.087,5.411A83.347,83.347,0,0,0-22.987,389.48Zm-1.038-3.2c-.544-1.646-1.134-3.275-1.649-4.934-.532-1.713-.856-3.519-1.518-5.185l.025-.015c.7-.662,1.425-1.275,2.178-1.858A71.41,71.41,0,0,0-24.025,386.279Zm-54.239-10.362a7.811,7.811,0,0,0,1.353-1.853c16.693,1.4,33.985.384,50.732-.524a16.6,16.6,0,0,0-1.713,1.919.651.651,0,0,0-.728.305c-16.8.231-34.014.1-50.764,1.43C-79.012,376.766-78.631,376.35-78.264,375.917Zm-.106,6.046c-.475-1.186-.972-2.367-1.55-3.5,16.851,1.253,34.538.335,51.369-.819a27.965,27.965,0,0,0,3.339,9.033c-12.515.957-25.006,1.3-37.516,1.71C-63.532,381.212-72.636,380.653-78.37,381.963Zm2.808,8.438a.8.8,0,0,0-.01-.2l.027.007c4.739.315,9.511.448,14.292.465-.416,2.015-1.353,3.275-4.013,3.076-1.12-.084-1.993-.623-3.162-.413a5.127,5.127,0,0,0-2.175,1.046c-.883.674-4.387,5.795-6.144,3.159C-76.293,395.186-75.912,392.812-75.562,390.4Zm-1.54,8.854a3.036,3.036,0,0,0,2.074.679c3.878-.108,4.2-4.9,8.726-4.5,2.025.177,3.7,1.137,5.364-.6a5.318,5.318,0,0,0,1.235-4.168c11.651-.027,23.364-.785,34.871-1.752l.022-.005c-.49,3.071-.866,6.179-1.211,9.294-4.83-3.507-12.025-3.861-15.168,1.991-1.912,3.558-3.5,4.971-7.709,5.1-1.789.054-3.706-.209-5.433.44a5.358,5.358,0,0,0-3.844,4.68c-7.242,0-14.5-.182-21.844-.559-.052,0-.084.029-.13.034A71.122,71.122,0,0,0-77.1,399.254ZM-27.2,409.286c-9.7.709-19.26,1.07-28.83,1.117,1.732-1.54,6.513-2.485,8.14-2.692.61-.076,1.233-.007,1.846-.093a7.849,7.849,0,0,0,4.5-1.868c1.294-1.191,1.543-2.921,2.468-4.321,3.056-4.614,8.509-3.858,12.842-1.344C-26.552,403.161-26.855,406.237-27.2,409.286Zm.443,26.167c-6.865-1.122-6.334-10.584-11.622-13.888-5.864-3.664-14.838,1.351-16.236-8,9.07-.165,18.172-1.006,27-1.688C-27.244,419.737-26.973,427.594-26.754,435.453Zm-24.1,66.761a1.174,1.174,0,0,0-.325.45c-9.518.064-19.033.162-28.517.635q-.668-18.544-.864-37.1c2.6-4.51,7.375-7.911,12.833-6.7,6.8,1.508,7.8,7.965,6.336,13.677-.7,2.736-3.538,9.545.861,10.524a13.959,13.959,0,0,0,5.364,2.827c3.7,1.294,6.846,2.908,7.687,7.089C-46.784,497.081-48.268,499.958-50.857,502.214Zm3.073.428a10.707,10.707,0,0,0,1.919-11.8,11.079,11.079,0,0,0-3.63-4.37c-3.039-2.141-7.168-2.057-10.047-4.223a.942.942,0,0,0-.091-.076c-2.869-1.592,1.661-11.619,1.366-14.831a11.481,11.481,0,0,0-6.58-9.309c-6.383-2.916-12.385.2-15.739,5.362-.017-2.065-.042-4.129-.049-6.194-.054-15.274.812-30.65.094-45.9a.7.7,0,0,0,.308.148,108.244,108.244,0,0,0,24.218,2.138c-.829,6.336,5.305,8.344,10.766,8.733,5.126.364,7.761,2.475,9.722,7.2a20.824,20.824,0,0,0,2.387,4.948c1.725,2.252,3.841,3.408,6.432,2.857.578,21.664.768,43.33,1.38,65C-32.8,502.539-40.29,502.593-47.783,502.642Zm35.823-24.1c-1.033,1.624-2.04,3.292-3.022,4.985L-15,483.52c-1.472-.391-3.231-2.7-4.028-4.008-2.168-3.558-.93-6.13,1.705-8.974,1.408-1.518,2.01-.714,3.061-2.864,1.6-3.28-3.684-15.441,2.087-15.611a.807.807,0,0,0,.332-.079C-11.916,460.838-12.1,469.691-11.961,478.542Zm.135-28.254a.749.749,0,0,0-.1-.037c-2.926-.413-4.958.6-5.82,3.639a9.63,9.63,0,0,0,.273,4.981c.7,3.007,1.228,3.073.081,6.582-1.764,5.4-.935,1.582-2.852,4.247-3.292,4.582-2.111,14.06,4.582,15.042-2.822,4.971-5.438,10.163-7.823,15.31,1.061-29.725-.29-59.667-1.937-89.328,4.031-4.028,7.808-8.352,11.516-12.675.554,13.278,1.742,26.507,2.023,39.807C-11.8,442-11.8,446.145-11.825,450.289Z" transform="translate(-928.236 423.944)" fill="#fdecce" stroke="#0b314b" stroke-width="1"/>
    <g id="Group_14" data-name="Group 14" transform="translate(-1319.362 722.277)">
      <path id="Path_25" data-name="Path 25" d="M-189.282,331.911c-.9-6.888-7.8-16.017-15.269-11.952a18.1,18.1,0,0,0-17.21,17.862c-.185,10.352,8.684,15.123,18.337,13.4A17.425,17.425,0,0,0-189.282,331.911Zm-2.889,6.587a15.226,15.226,0,0,1-14.553,10.566c-8.75.032-14.1-6.044-12.168-14.6,1.563-6.907,6.769-11.041,13.064-13.152a1.016,1.016,0,0,0,1.474.866C-194.552,317.787-190.153,331.727-192.17,338.5Z" transform="translate(257.51 -303.083)" fill="#fdecce" stroke="#0b314b" stroke-width="1"/>
      <path id="Path_26" data-name="Path 26" d="M-207.839,321.233A9.8,9.8,0,0,0-218.3,327.2c-.148.408.47.783.748.436a11.088,11.088,0,0,1,7.269-4.439c3.915-.406,5.527,2,5.943,5.465.094.768,1.159,1.265,1.6.433C-200.927,325.682-204.576,321.845-207.839,321.233Z" transform="translate(262.529 -299.952)" fill="#fdecce" stroke="#0b314b" stroke-width="1"/>
      <path id="Path_27" data-name="Path 27" d="M-143.672,316.413c-5.158-3.462-10.94-4.387-17.065-3.693-9,1.019-24.885,10.827-31.837,2.429a.459.459,0,0,0-.765.138c-2.222-1.171-4.673-1.8-7.02-.384-3.541,2.128-4.392,9.033-6.051,12.262-4.026,7.842-9.424,9.978-16.966,13.48-4.86,2.256-8.509,5.446-10.707,10.419-3.588,8.123-3.147,20.318,3.89,26.541,3.94,3.487,9.1,3.829,13.915,5.374,8.667,2.783,10.254,9.894,12.048,17.759,1.814,7.951,4.764,15.584,13.854,16.821,10.618,1.447,20.618-6.322,24.5-15.726,5.131-12.436,3.283-26.2,16.11-34.263,8.915-5.6,18.984-9.109,21.014-20.761C-126.727,335.173-134.2,322.764-143.672,316.413Zm.846,44.384c-6.88,3.944-14.083,7.079-17.938,14.447-4.154,7.936-3.989,17.257-7.34,25.476-5.273,12.928-26.7,22.449-32.594,4.643-2.074-6.26-2.06-13.568-6.2-19-6.356-8.332-19.688-4.633-24.8-14.422-3.642-6.974-2.766-16.713,1.595-23.109,3.932-5.768,10.684-6.42,16.253-9.818a24.679,24.679,0,0,0,7.832-7.874,36.649,36.649,0,0,0,3.039-6.053,19.06,19.06,0,0,1,1.093-3.056c1.658-2.527,7.815-4.956,10.561-3.036a.824.824,0,0,0,.987.029c4.237,2.815,10.15,1.189,15.264-.345,5.948-1.784,12.077-3.962,18.372-3.856,8.4.143,14.693,4.956,19.582,11.413C-128,338.284-129.129,352.944-142.825,360.8Z" transform="translate(236.29 -312.505)" fill="#fdecce" stroke="#0b314b" stroke-width="1"/>
    </g>
    <g id="Group_15" data-name="Group 15" transform="translate(-2005.888 647.182) rotate(45)">
      <path id="Path_28" data-name="Path 28" d="M97.29,212.75c-1.8-2.2-6.09-3.472-8.007-1.529a3.781,3.781,0,0,0-4.582-1.353,4.482,4.482,0,0,0-2.164-3.844,4.61,4.61,0,0,0-5.95,1.446c-2.428-3.613-8.486-3.116-8.942,2.032-.044.5.685.543.828.113,1.206-3.626,6.124-4.477,7.319-.254a.79.79,0,0,0,1.51,0c.844-2.321,3.516-2.944,5.006-1.062,1.1,1.391.775,2.732-.207,4.073-.547.748.626,1.587,1.256.969a4.415,4.415,0,0,0,1.046-1.648c.986-.794,2.293-.1,3.922,2.1-.028,1.071,1.575,1.049,1.648,0,.132-2.762,3.544-2.031,4.993-.913a4.919,4.919,0,0,1,1.465,1.593q1.407,1.825-.888,3.878a.59.59,0,0,0-.5.242.808.808,0,0,0-.3,1.03c1.662,3.671-3.3,5.025-5.821,3.756a6.417,6.417,0,0,1-2.29-1.959c-.13-.179-1.612-3.486-1.161-3.474.588.017.638-.8.132-.977a1.242,1.242,0,0,0-.519-.082.611.611,0,0,0-1.15.044c-.64,1.687-1.429,2.884-3.364,2.683a2.826,2.826,0,0,1-2.6-3.322c.056-.883-1.189-.939-1.458-.2a3.282,3.282,0,0,1-2.2,2.283q-3.394-.094-2.467-3.157a.482.482,0,0,0-.108-.615,3.2,3.2,0,0,0,.075-.353c.052-.546-.677-.61-.936-.253a8.257,8.257,0,0,1-1.675,1.855q-3.418,1.108-4.137-2.423a.722.722,0,0,0-1.443,0,2.8,2.8,0,0,1-2.664,2.961,1.563,1.563,0,0,1-1.835-.339,1.521,1.521,0,0,1-1.113-1.17.327.327,0,0,0,.165-.6.962.962,0,0,0-.648-.129.364.364,0,0,0-.464.093,2.274,2.274,0,0,1-1.446.986,1.962,1.962,0,0,1-.541-.013c.016-.067.035-.133.05-.2a.538.538,0,0,0-1.037-.287l0,.006c-.011-.013-.028-.02-.039-.035a1.709,1.709,0,0,1-.312-1.471c.122-.61.594-.971.815-1.526a.544.544,0,0,0-.475-.687c-2.109-1.814-1.368-5.3,1.713-4.659a6.028,6.028,0,0,1,3.433,2.356.75.75,0,0,0,1.171-.151,4.153,4.153,0,0,1,1.595-2.1q3.926-1.244,3.9,2.425a.71.71,0,0,0,1.388.188,3.755,3.755,0,0,0-2.958-4.518,4.585,4.585,0,0,0-4.744,2.376c-1.885-1.851-4.51-3.48-6.907-1.391a3.707,3.707,0,0,0,.323,5.892,3.215,3.215,0,0,0,.027,4.418,2.236,2.236,0,0,0,.533.367c-2.969,8.249-5.258,16.788-7.8,25.17q-1.891,6.236-3.779,12.472c-1.162,3.833-2.686,7.642-2.675,11.69a.846.846,0,0,0,.453.712,58.878,58.878,0,0,0,1.5,8.119,78.139,78.139,0,0,0,2.487,10.487c.229.629,1.322.6,1.256-.169,0-.041-.009-.078-.013-.119,9.947-7.333,19.476-15.2,29.1-22.956q7.257-5.843,14.509-11.693c3.116-2.523,6.315-4.863,6.587-9.113a.655.655,0,0,0-.053-.3,14.535,14.535,0,0,0,.6-5.87,76.07,76.07,0,0,0-.549-10.131.543.543,0,0,0-.182-.334,3.7,3.7,0,0,0,1.548-4.266,2.624,2.624,0,0,0,2.238-1.678C99.57,216.407,98.435,214.152,97.29,212.75ZM44.05,252.508q1.884-6.236,3.77-12.474c2.356-7.794,4.97-15.577,6.927-23.486a3.3,3.3,0,0,0,2.33-.684,4.629,4.629,0,0,0,1.651,1.559,4.1,4.1,0,0,0,5.69-1.724,3.965,3.965,0,0,0,3.047,1.918,4.159,4.159,0,0,0,2.973-.906,3.35,3.35,0,0,0,2,2.882,3.727,3.727,0,0,0,4.366-1.208c1.228,3.046,5.636,3.591,7.493,1.413.009.047.019.1.028.136a7.511,7.511,0,0,0,4.3,5.073,5.592,5.592,0,0,0,1.487.4q-23.627,20.463-49.138,38.551C41.333,260.053,42.927,256.222,44.05,252.508Zm-3.282,13.551Q67.5,247.2,92.322,225.832a.75.75,0,0,0,.281-.571,7.083,7.083,0,0,0,1.292-.439,48,48,0,0,0-.052,5.854c-.019.013-.039.016-.058.03-16.857,13.876-34.489,26.63-51.658,40.084A33.436,33.436,0,0,0,40.767,266.059Zm52.9-25.439c-1.016,5.113-6.922,8.5-10.7,11.552q-6.521,5.269-13.04,10.543c-8.434,6.82-16.921,13.567-25.068,20.729-.392-2.939-1.22-5.84-1.88-8.721-.243-1.065-.463-2.147-.7-3.229,18.159-11.489,35.254-25.407,51.624-39.313.055,1.22.107,2.44.125,3.66a.709.709,0,0,0-.331.165,570.943,570.943,0,0,1-50.149,39.416c-.367.26-.038.859.358.613a346.143,346.143,0,0,0,50.115-38.4c-.019.877-.056,1.753-.146,2.632A.638.638,0,0,0,93.672,240.621Z" transform="translate(-39.301 -204.482)" fill="#fdecce" stroke="#0b314b" stroke-width="1"/>
      <path id="Path_29" data-name="Path 29" d="M74.746,225.987a6.718,6.718,0,0,0-1.587-4.639c-.762-1.04-1.709-1.92-2.509-2.928a10.7,10.7,0,0,1-1.883-4.12.641.641,0,0,0-1.225,0c-1.689,4.7,5.669,7.374,5.9,11.889-5.042,4.626-14.464-11.376-19.28-7.413a.5.5,0,0,0-.127.017c-2.388.837-2.646,3.445-1.661,5.542,2.1,4.462,9.9,5.752,9.963,11.1-2.92,6.419-7.239-3.521-10.241-4.493-1.642-.532-2.588.425-3,1.706a.569.569,0,0,0-.817.439,8.094,8.094,0,0,0,1.286,6.016c1.225,1.888,4.054,3.927,2.911,6.155a3.547,3.547,0,0,1-2.335.3c-.679-.157-1.311-.442-1.971-.656a4.646,4.646,0,0,0-3.453-.041c-2.664,1.338-1.01,4.448.433,6,.434.467,1.275-.154.9-.695-.745-1.073-2.384-3.544,0-3.985,1.06-.2,2.216.544,3.209.826,1.123.32,2.759.483,3.612-.414,1.157-.541,1.607-2.183,1.4-3.447a6.556,6.556,0,0,0-1.625-2.942,12,12,0,0,1-2.9-6.191c.348-.864,1.27-1.164,2.78-.881q.725.875,1.383,1.8a19.371,19.371,0,0,0,1.956,2.178,7.024,7.024,0,0,0,3.456,2.112c2.228.35,4.606-1.506,4.339-3.759a6.445,6.445,0,0,0-2-5.376c-1.957-2.031-11.243-6.447-7.052-10.082,4.482-1.386,10.667,7.281,14.724,8.73,2.351.839,4.794.287,5.523-2.241A.6.6,0,0,0,74.746,225.987Z" transform="translate(-37.028 -199.159)" fill="#fdecce" stroke="#0b314b" stroke-width="1"/>
    </g>
    <path id="Path_30" data-name="Path 30" d="M-73.656,355.544c-1.823-.416-16.027-.416-14.183,3.524a1.229,1.229,0,0,0-.138.576c0,.1.01.194.012.293l-.012,0c-8.421,3.482-8.635,14.629-3.6,21.192a10.544,10.544,0,0,0,7.183,4.4c-4.474,3.578-11.669,4.333-15.837-.189-4.373-4.747-3.425-16.575,4.638-16.7a1.053,1.053,0,0,0,0-2.1,7.347,7.347,0,0,0-5.874,1.841,10.023,10.023,0,0,0-1.629-.345.915.915,0,0,0-.039-.219,13.644,13.644,0,0,0-5.3-6.3c2.315-2.7,1.661-6.317-.458-8.708,2.143-3.157,2.712-8.765-1.7-9.968a5.523,5.523,0,0,0-2.9.066,43.469,43.469,0,0,1-.866-6.678,27.537,27.537,0,0,1,.091-2.778c.2-2.448.044-3.472,2.431-4.5,2.874-1.233,1.922.352,3.263,2.193a4.836,4.836,0,0,0,2.923,1.966,8.508,8.508,0,0,0,3.317-.089,13.392,13.392,0,0,1,3.125-.534l1.5.118L-97.811,337c-1.545,3.588-6.789,5.418-9.365,8.1a1.061,1.061,0,0,0,1.024,1.759c4.387-1.174,11.349-7.074,12.232-11.733,1.046-5.519-5.037-5.195-8.548-4.609-4.594.765-4.171-4-7.291-5.416a4.285,4.285,0,0,0-4.781,1.2c-3.59,3.836-2.522,12.377-.408,17.178-2.621,1.348-4.678,4.191-4.072,6.917a.672.672,0,0,0,1.314-.177c0-2.687,4.176-6.782,7.023-5.052,2.352,1.43,1.065,4.065.032,6.167a6.789,6.789,0,0,0-4.262-1c-7.343.768-9.629,9.439-5.436,14.752-1.927,5.468-.719,16.691,5.938,16.664a.61.61,0,0,0,.48-.219c1.8,5.67,8.078,8.74,14.031,7.645a.467.467,0,0,0,.231-.123c5.391,3.371,13.221,2.1,16.937-3.45,4.761-.177,9.688-3.415,13.224-7.313a.505.505,0,0,0,.052-.086c4.146-.372,7.736-2.751,8.576-7.672C-59.557,362.742-66.838,357.1-73.656,355.544Zm-41.938-2.763a5,5,0,0,1,4.235.763.99.99,0,0,0,.6.509,4.671,4.671,0,0,1,.31,6.435,7.053,7.053,0,0,0-9.021,2.805C-121.094,359.25-120.584,354.063-115.594,352.781Zm1.4,27.71c-.015-.007-.027-.017-.042-.025-4.55-1.644-5.586-10.591-4.026-14.375a5.733,5.733,0,0,1,8.066-3.241c2.377,1.065,3.649,3.032,4.973,5.111a10.239,10.239,0,0,0-9.22,10.6A10.878,10.878,0,0,0-114.2,380.491Zm2.114-.984a7.974,7.974,0,0,1,9.063-9.264c-2.786,4.407-2.675,11.6-.094,15.473a11.32,11.32,0,0,0,2.138,2.384C-106.256,388.043-111.251,385.176-112.085,379.507Zm23.893,1.248c-5.106-4.806-5.928-14.427.431-18.256a18.771,18.771,0,0,0,11.479,14.634,15.408,15.408,0,0,0,4.442,1.061C-76.659,381.684-83.113,385.533-88.192,380.754Zm23.61-8.233c-3.332,5.054-10.455,2.97-14.491-.153a16.157,16.157,0,0,1-6.353-12.724,1.163,1.163,0,0,0-.5-.974c1.065-1.383,6.322-1.393,7.1-1.373a19.966,19.966,0,0,1,8.5,2.1C-65.8,361.758-61.191,367.378-64.581,372.521Z" transform="translate(-984.767 355.704)" fill="#fdecce" stroke="#0b314b" stroke-width="1"/>
    <g id="Group_16" data-name="Group 16" transform="translate(-681.035 256.905)">
      <path id="Path_31" data-name="Path 31" d="M201.48,236.271c-1.791-3.913-6.494-6.952-10.665-9a7.777,7.777,0,0,0,4.884-7.156c.012-6.573-6.144-10.251-11.984-10.908,3.243-25.126-14.5-49.844-39.8-55.127-26.344-5.5-59.581,4.808-68.309,31.4-4.481-2.015-10.549-1.065-12.3,4.124a5.789,5.789,0,0,0,1.467,6.1,6.1,6.1,0,0,0,.5.4c-6.312,2.822-13.349,10.431-14.42,17.35-.288,1.86-.017,2.089,1.467,3.169,2.052,1.5,5.283,2.064,7.564,3.342.832.465,1.631.97,2.414,1.5-3.238,3.57-.45,6.253,3.118,8.155-4.476,7.685.391,16.354,7.515,20.817,5.768,3.612,12.643,5.372,19.033,7.51q12.158,4.071,24.319,8.137c12.171,4.072,25.874,9.981,39.017,7.835,11.28-1.841,13.448-12.328,13.362-22.269,0-.027-.015-.049-.015-.076a11.433,11.433,0,0,0,4.55-8.64,41.347,41.347,0,0,1,12.345,11.5,1.109,1.109,0,0,0,1.745-.15c3.917-6.533,9.621-11.073,14.147-16.932A1.064,1.064,0,0,0,201.48,236.271Zm-21.3-16.521a1.392,1.392,0,0,0,1.27-.977,46.807,46.807,0,0,0,1.969-7.549c4.018.647,8.224,2.412,9.579,6.6,1.442,4.469-2.49,9.99-7.362,7.323a.88.88,0,0,0-1.181,1.235.75.75,0,0,0-.007.108c.239,2.308,1.191,5.081-.172,7.237a5.336,5.336,0,0,1-4.973,2.158c-4.006-.3-6.09-4.036-7.266-7.453a5.071,5.071,0,0,0,.091-2.7.984.984,0,0,0-1.882-.069c-.91,2.611-1.715,4.941-4.7,5.77a7.678,7.678,0,0,1-3.585.076c-.768-.16-3.89-.967-3.649-2.264.143-.778-.9-1.442-1.366-.635-.037.061-.049.116-.079.175-.025-.037-.039-.079-.066-.116-.487-.7-1.875-.662-1.826.421a28.041,28.041,0,0,1,.133,3.593,1.1,1.1,0,0,0-.062.519,6.087,6.087,0,0,1-.406,1.405,7.2,7.2,0,0,1-4.277,4.129,6.467,6.467,0,0,1-6.376-1.528.919.919,0,0,0-1.063-1.166h0a8.386,8.386,0,0,1-1.649-3.991.845.845,0,0,0-1.036-1.277c-6.39,3.354-11.457-2.81-9.749-9.018a1.084,1.084,0,0,0-1.939-.9c-2.827,4.072-7.4-.283-5.65-3.861a212.77,212.77,0,0,0,33.059,5.347C162.734,222.877,175.313,226,180.18,219.749Zm-7.522,14.277a45.58,45.58,0,0,0-4.474-1.206,9.2,9.2,0,0,0,2.714-2.261A14.151,14.151,0,0,0,172.658,234.026Zm-60.356-19.8c4.2,1.174,7.505,2.005,9.014,2.382a4.384,4.384,0,0,0-.965,2.941,56.121,56.121,0,0,0-6.568-4.764c-.524-.322-.965.418-.5.787A69.893,69.893,0,0,1,124.91,226.88c3.253,4.146,5.34,8.755,8.066,13.172a18.287,18.287,0,0,1-5.35,1.358q-3.067,2.558-3.807-1.287-.343-1.011-.687-2.025c-.775-1.722-1.43-3.442-2.352-5.1A33.008,33.008,0,0,0,108.7,220.4,5.481,5.481,0,0,0,112.3,214.223Zm13.317,10.36a4.826,4.826,0,0,0,2.335-.458,11.025,11.025,0,0,0,.487,3.8C127.555,226.777,126.611,225.66,125.619,224.582Zm5.674,7.515a7.847,7.847,0,0,0,8.32,1.031,8.98,8.98,0,0,0,1.312,3.561c-2.035.76-4.208,1.806-6.371,2.724A31.743,31.743,0,0,0,131.293,232.1ZM65.856,189.121c2.079-3.32,6.009-3.2,9.373-2.441a43.914,43.914,0,0,0-1.612,8.4.68.68,0,0,0,1.324.221c3.511-13.763,11.081-26.165,23.881-33.052,13.275-7.141,30.968-8.536,45.5-5.111,27.046,6.371,41.844,34.029,34.464,60.255a1.354,1.354,0,0,0-.7.5c-3.73,5.163-20.6,1.784-26.187,1.235a204.209,204.209,0,0,1-26.925-4.461,209.08,209.08,0,0,1-22.557-6.673q-5.212-1.868-10.323-4.013c-4.146-1.74-14.5-4.525-15.788-9.5-.108-.418-.807-.642-1.026-.175-3.371,7.183,20.377,15.18,35.338,19.449.01,2.089-.645,4.082-2.714,4.99a4.531,4.531,0,0,1-1.686.369c-.148-.066-.285-.148-.433-.212a.338.338,0,0,0-.45.148,4.635,4.635,0,0,1-3.566-3.349c-.239-.8-1.609-1.051-1.8-.066q-.044,2.58-2.894,1.772c-1.858.842-2.938.475-3.268-1.063a10.62,10.62,0,0,0,.406-1.307.742.742,0,0,0-1.144-.787.44.44,0,0,0-.46.379c-.022.116-.017.219-.032.33-3.236,5.131-8.352,8.8-14.653,5.884-6.666-3.086-7.458-10.657-3.762-16.341a.628.628,0,0,0-.539-.933.734.734,0,0,0-1.056-.443c-1.8.859-4.611.605-5.325-1.619a3.366,3.366,0,0,1,.495-2.788,8.436,8.436,0,0,1,1.289-1.6,3.143,3.143,0,0,0,1.1-.5.7.7,0,0,0-.263-1.181c-1.405-.244-2.643-.251-3.708-1.38A3.956,3.956,0,0,1,65.856,189.121Zm5.834,28.532a10.418,10.418,0,0,0-3.74,5.465q-1.665-1.458-3.45-2.756a12.248,12.248,0,0,1,5.642-8.169A12.14,12.14,0,0,0,71.69,217.653Zm-18.91-3.615c-1.014-2.04,4.963-9.547,6.245-11a60.5,60.5,0,0,1,7.178-6.358c.153.076.3.175.455.236a5.265,5.265,0,0,0-1.351,5.512,4.6,4.6,0,0,0,1.129,1.663,22.1,22.1,0,0,0-10.062,12.267C54.687,215.655,53.2,214.875,52.78,214.038Zm9.063,4.567a38.693,38.693,0,0,0-4.242-1.752,25.933,25.933,0,0,1,10.677-11.6,5.044,5.044,0,0,0,3.735.074,11.366,11.366,0,0,0-1.814,5.091c-.03.012-.059.01-.089.025a11.822,11.822,0,0,0-6.366,9.388C63.125,219.4,62.495,218.989,61.843,218.605Zm1.184,3.354a45.985,45.985,0,0,1,4.749,3.861c.524.485,1.651.465,1.811-.406a10.927,10.927,0,0,1,3.206-6.142A12,12,0,0,0,76.43,222.3c5.669,3.056,13.43,1.1,16.627-4.385a4.676,4.676,0,0,0,7.909.285,6.459,6.459,0,0,0,5.911,2.616c4.5,3.5,8.519,7.266,11.489,12.249,1.634,2.744,2.362,5.687,3.588,8.593.322.765.327,1.983,1.041,2.564,1.5,1.223,3.716-.13,5.143-.627,4.715-1.641,9.5-3.253,14.068-5.286a8.908,8.908,0,0,0,8.334,2.682,9.006,9.006,0,0,0,4.082-2.421,32.978,32.978,0,0,1,16.3,3.14c-2.975,12.692-17.22,10.711-27.181,8.844-8.881-1.666-17.7-3.674-26.45-5.935s-17.422-4.8-26.01-7.611C87.995,235.936,60.123,227.889,63.026,221.959Zm100.17,44.3c-4.136,5.977-11.127,5.972-17.749,5.327-9.786-.952-19.211-4.668-28.473-7.746q-14.2-4.717-28.392-9.429c-10.027-3.337-28.6-10.3-21.89-24.169,1.922.9,3.885,1.59,5.15,2.087a412.185,412.185,0,0,0,44.7,14.688c8.6,2.291,36.647,12.072,49.795,5.915C166.171,257.59,165.923,262.327,163.2,266.261Zm23.62-15.453c-2.089.145-4.242-3.74-5.844-5.239-6.767-6.341-15.948-10.219-25.109-8.443a10.271,10.271,0,0,0,1.6-3.231c12.729-.352,22.833,4.889,33.365,11.565C189.511,247.405,187.281,250.776,186.816,250.808Zm4.912-6.632-.044.059A85.23,85.23,0,0,0,181.878,238a6.458,6.458,0,0,0,4.843-4.186c1.208.888,2.616,1.518,3.772,2.522a17.1,17.1,0,0,1,3.935,5.007.738.738,0,0,0,.094.116C193.5,242.42,192.459,243.315,191.728,244.177Zm3.821-3.74c-1.526-3.174-4.732-7.424-8.43-8.115a10.567,10.567,0,0,0-.317-4.779,6.189,6.189,0,0,0,.96.158c2.626,1.5,8.763,4.385,9.7,6.865C198.328,236.839,197.146,238.743,195.549,240.436Z" transform="translate(-50.754 -152.642)" fill="#fdecce" stroke="#0b314b" stroke-width="1"/>
      <path id="Path_32" data-name="Path 32" d="M67.923,165.5a.549.549,0,0,0-.578-.433.34.34,0,0,0-.4-.347,4.658,4.658,0,0,0-4.188,4.907.68.68,0,0,0,.645.687C65.944,170.5,68.432,168.118,67.923,165.5Zm-3.775,3.474a4.678,4.678,0,0,1,2.63-3.43.674.674,0,0,0-.012.069A3.172,3.172,0,0,1,64.148,168.979Z" transform="translate(-33.223 -134.998)" fill="#fdecce" stroke="#0b314b" stroke-width="1"/>
      <path id="Path_33" data-name="Path 33" d="M68.009,168.2a.588.588,0,0,0-.6-.65.417.417,0,0,0-.7-.305c-1.164,1.036-4.791,5.539-1.745,6.494a2.553,2.553,0,0,0,2.67-1.075C68.514,171.38,67.908,169.637,68.009,168.2Zm-2.286,4.21c-1.142.054.13-2.338.987-3.684C66.791,170.031,67.143,172.344,65.723,172.413Z" transform="translate(-31.733 -131.483)" fill="#fdecce" stroke="#0b314b" stroke-width="1"/>
      <path id="Path_34" data-name="Path 34" d="M99.616,162.581c.02-.443-.7-.591-.79-.133a9.619,9.619,0,0,1-1.056,2.965c-.15.261-.714,1.346-1.016,1.376-.468.047-.623-1.139-.62-1.39.015-1.816,1.218-2.95,2.694-3.755a.5.5,0,0,0-.349-.933c-2.7.285-4.387,3.883-3.388,6.265.5,1.189,1.715,1.683,2.662.652A8.184,8.184,0,0,0,99.616,162.581Z" transform="translate(13.585 -140.862)" fill="#fdecce" stroke="#0b314b" stroke-width="1"/>
      <path id="Path_35" data-name="Path 35" d="M102.562,165.842c-.495-1.531-2.2-2.515-3.666-2.918a.579.579,0,0,0-.283,0c.012-.049.015-.1.03-.148a.377.377,0,0,0-.719-.224,5.539,5.539,0,0,0,.1,4.781c.625,1.22,1.937,2.527,3.379,1.71A2.809,2.809,0,0,0,102.562,165.842Zm-1.646,1.929c-.945.881-1.91-1-2.185-1.75A5.063,5.063,0,0,1,98.457,164a10.394,10.394,0,0,1,2.279,1.408A1.633,1.633,0,0,1,100.915,167.772Z" transform="translate(17.428 -138.525)" fill="#fdecce" stroke="#0b314b" stroke-width="1"/>
      <path id="Path_36" data-name="Path 36" d="M99.9,165.093a.673.673,0,0,0-1.223-.162.463.463,0,0,0-.846-.253c-.9,1.319-2.741,1.841-3.192,3.487a2.448,2.448,0,0,0,.918,2.808c1.174.608,2.392-.413,3.1-1.28A5.677,5.677,0,0,0,99.9,165.093Zm-1.769,2.965c-.315.613-2.02,2.717-2.279,1.063-.241-1.55,2.065-2.685,2.758-3.932,0,.012,0,.02,0,.032A5.428,5.428,0,0,1,98.128,168.058Z" transform="translate(13.192 -135.371)" fill="#fdecce" stroke="#0b314b" stroke-width="1"/>
      <path id="Path_37" data-name="Path 37" d="M105.435,176.561a.457.457,0,0,0-.7-.34c0-.194-.14-.4-.369-.33-1.6.482-3.295.91-4.1,2.557a3.058,3.058,0,0,0,.7,3.46,2.133,2.133,0,0,0,3.177-.221A6.837,6.837,0,0,0,105.435,176.561Zm-1.755,3.194c-.389.92-1.344,2.025-2.062.682-.923-1.727,1.476-3.182,2.8-3.861a.382.382,0,0,0-.032.089A12.782,12.782,0,0,1,103.68,179.755Z" transform="translate(21.174 -118.702)" fill="#fdecce" stroke="#0b314b" stroke-width="1"/>
      <path id="Path_38" data-name="Path 38" d="M102.9,176l.084-.022a.475.475,0,0,0-.214-.925c-1.587.236-7.313,1.454-4.968,4.171a2.5,2.5,0,0,0,2.852.716,5.354,5.354,0,0,0,2.525-3.265A.556.556,0,0,0,102.9,176Zm-4.149,2.478c-.711-.787.559-1.216,1.139-1.471a17.678,17.678,0,0,1,2.18-.773C101.544,177.31,100.216,180.1,98.749,178.476Z" transform="translate(17.153 -119.92)" fill="#fdecce" stroke="#0b314b" stroke-width="1"/>
      <path id="Path_39" data-name="Path 39" d="M83,160.744c.047-.854-1.208-.866-1.309-.042a15.5,15.5,0,0,1-.677,3.189,3.9,3.9,0,0,1-.674,1.535.94.94,0,0,1-1.516-.241c-1.051-1.782,2.1-3.866,3.059-5,.221-.258-.094-.635-.367-.4-1.3,1.127-3,1.806-3.785,3.44a2.7,2.7,0,0,0,.741,3.487C81.727,168.963,82.893,162.705,83,160.744Z" transform="translate(-11.825 -142.317)" fill="#fdecce" stroke="#0b314b" stroke-width="1"/>
      <path id="Path_40" data-name="Path 40" d="M85.261,163.569a8.353,8.353,0,0,0-1.949-4.451c-.9-1.056-2.466-2.456-3.935-2.387a.556.556,0,0,0-.315,1.014c.1.079.2.138.3.209a.455.455,0,0,0-.1.229,5.531,5.531,0,0,0,5.372,6.149A.633.633,0,0,0,85.261,163.569Zm-5.084-5.091a7.66,7.66,0,0,1,2.158,1.533,7.022,7.022,0,0,1,1.543,2.995A4.572,4.572,0,0,1,80.178,158.478Z" transform="translate(-9.746 -146.675)" fill="#fdecce" stroke="#0b314b" stroke-width="1"/>
      <path id="Path_41" data-name="Path 41" d="M62.4,184.341a1.374,1.374,0,0,1-1.016-2.195c.276-.276-.052-.824-.413-.588-1.715,1.117-.5,4.1,1.516,3.637C62.949,185.089,62.9,184.322,62.4,184.341Z" transform="translate(-37.024 -110.49)" fill="#fdecce" stroke="#0b314b" stroke-width="1"/>
      <path id="Path_42" data-name="Path 42" d="M64.437,184.146a2.641,2.641,0,0,0-2.173-2.338c-.335-.057-.509.443-.16.519a1.926,1.926,0,0,1,1.6,1.9,2.15,2.15,0,0,1-1.511,1.755c-.487.226-.172.92.315.842A2.537,2.537,0,0,0,64.437,184.146Z" transform="translate(-34.453 -110.046)" fill="#fdecce" stroke="#0b314b" stroke-width="1"/>
      <path id="Path_43" data-name="Path 43" d="M67.5,184.3a.554.554,0,0,0-1.014-.315c-.342.7-.645,1.72-1.4,2.092-.566.281-1.484,0-1.388-.748.062-.47-.7-.588-.817-.138a1.854,1.854,0,0,0,1.917,2.163C66.386,187.393,67.3,185.646,67.5,184.3Z" transform="translate(-33.119 -107.227)" fill="#fdecce" stroke="#0b314b" stroke-width="1"/>
      <path id="Path_44" data-name="Path 44" d="M73.3,183.859a1.033,1.033,0,1,1,.253-2.05.469.469,0,0,0,.155-.913,2.1,2.1,0,0,0-2.758,1.7,2.083,2.083,0,0,0,2.175,2.3C73.678,184.856,73.927,184.017,73.3,183.859Z" transform="translate(-21.267 -111.531)" fill="#fdecce" stroke="#0b314b" stroke-width="1"/>
      <path id="Path_45" data-name="Path 45" d="M74.915,181.32a.474.474,0,0,0-.512.8,2.433,2.433,0,0,1,1.068,2.744c-.344,1.058-1.245,1.376-2.2,1.686a.561.561,0,0,0,.108,1.1,3.3,3.3,0,0,0,3.219-2.6A3.5,3.5,0,0,0,74.915,181.32Z" transform="translate(-18.472 -110.861)" fill="#fdecce" stroke="#0b314b" stroke-width="1"/>
      <path id="Path_46" data-name="Path 46" d="M75.753,187.233c.091-1.543-.7-3.723-2.453-3.972-1.289-.185-2.722.812-2.173,2.185.1.236.477.13.475-.111-.012-.984,1.457-1.006,1.946-.448a7.321,7.321,0,0,1,.9,2.475A.665.665,0,0,0,75.753,187.233Z" transform="translate(-21.171 -107.95)" fill="#fdecce" stroke="#0b314b" stroke-width="1"/>
      <path id="Path_47" data-name="Path 47" d="M94.1,191.655a4.33,4.33,0,0,1-2.515.536,2.972,2.972,0,0,1-2.153-1.671.538.538,0,0,0-1,.372c.532,2.4,4.784,4.191,6.329,1.7C95.027,192.177,94.641,191.456,94.1,191.655Z" transform="translate(4.275 -97.724)" fill="#fdecce" stroke="#0b314b" stroke-width="1"/>
      <path id="Path_48" data-name="Path 48" d="M93.86,190.709c-.9-2.52-4.493-2.611-5.957-.561-.342.475.364,1.065.783.657a2.888,2.888,0,0,1,4.161.438C93.218,191.654,94.069,191.29,93.86,190.709Z" transform="translate(3.378 -99.965)" fill="#fdecce" stroke="#0b314b" stroke-width="1"/>
      <path id="Path_49" data-name="Path 49" d="M97.206,191.9c-.933.125-1.526.5-2.458.01a2.385,2.385,0,0,1-.938-.837,1.353,1.353,0,0,1-.224-.6c-.017-.315.212-.534.138-.706.246.571,1.014.177.945-.352-.133-1.058-1.341-.923-1.969-.372a2.371,2.371,0,0,0-.18,2.938,3.949,3.949,0,0,0,2.507,1.85c.969.236,2.426.145,2.923-.881A.709.709,0,0,0,97.206,191.9Z" transform="translate(9.643 -100.086)" fill="#fdecce" stroke="#0b314b" stroke-width="1"/>
    </g>
    <g id="Group_17" data-name="Group 17" transform="translate(-1893.399 545.659)">
      <path id="Path_50" data-name="Path 50" d="M-144.9,175.087a.688.688,0,0,0-.842.642c-14.375-8.133-39.568,15.608-23.758,25.842,8.357,5.409,20.638-1.836,26.357-8.157C-138.461,188.244-136.772,177.919-144.9,175.087Zm-18.327,5.322c6.349-3.881,13.753-5.51,20.175-1.006a.5.5,0,0,0,.391.091,8.067,8.067,0,0,1,.95,3.2.977.977,0,0,0-.849-.566c-9.026-.61-24.58,7.791-20.837,18.561a9.006,9.006,0,0,1-3.905-1.225C-175.935,194.182-169.652,184.337-163.225,180.409Zm1.277,20.323c-1.607-10.458,10.337-16.588,19.39-16.583a.9.9,0,0,0,.881-.551C-141.861,191.711-153.249,200.5-161.948,200.732Z" transform="translate(208.537 -142.108)" fill="#fdecce" stroke="#0b314b" stroke-width="1"/>
      <path id="Path_51" data-name="Path 51" d="M-84.8,173.649c-7.717-9.191-19.08-12.737-30.909-12.567a.481.481,0,0,0-.145,0A69.375,69.375,0,0,0-155,174.631a1.138,1.138,0,0,0-.281.32c-18.15,9.279-33.4,29.578-33.069,50.279.359,22.4,17.208,36.62,38.98,36.96,22.038.342,43.333-11.329,56.926-28.3C-79.63,217.895-69.821,191.492-84.8,173.649Zm-33.933-9.567C-121.7,166-126,166.051-129.8,165.859A71.066,71.066,0,0,1-118.73,164.082Zm-60.5,37.444A63.121,63.121,0,0,1-167.1,187.067c.3,7.269-3.905,11.415-9.816,15.059-1.351.832-2.756,1.686-4.048,2.655C-180.425,203.677-179.851,202.587-179.226,201.526Zm-4.092,8.866c7.343-7.387,19.826-11.43,17.252-24.208a.336.336,0,0,0-.017-.044c3.644-3.275,7.5-6.366,11.307-9.607a.843.843,0,0,0,.817-.133,70.786,70.786,0,0,1,19.715-9.333.728.728,0,0,0,.177.1c4.87,1.688,14.038,1.459,17.631-3.219,8.635-.344,16.959,1.189,23.517,5.463.3,5.369-.723,11.167.709,16.334.662,2.387,1.951,3.967,3.083,6.122,3.228,6.149,2.089,12.591-2.889,17.377-6.132,5.9-18.162,6.494-21.5,14.858-3.578,4.08-4.656,9.38-7.153,14.311-4.437,8.77-13.529,14.917-23.564,13.438a20.54,20.54,0,0,1-12.264-6.774c-2-2.124-3.652-4.57-6.39-5.824-2.485-1.139-5.044-.962-7.7-.846-6.632.283-12.559-1.307-14.727-7.153A43.024,43.024,0,0,1-183.319,210.392Zm66.486,40.848c-21.42,11.789-57.7,14.225-67.051-14.021a11.4,11.4,0,0,0,5.908,3.332c2.557.561,4.838,0,7.389,0,5.588.017,8.977,2.308,12.525,6.085a22.83,22.83,0,0,0,9.169,6.425,23.518,23.518,0,0,0,21.659-3.428c9.38-6.809,9.388-18.138,16.622-26.32a.705.705,0,0,0,.162-.723c6.858-6.823,19.444-7.131,24.194-17.121a15.063,15.063,0,0,0-.322-13.883c-2.539-4.71-3.836-7.958-3.972-13.381a61.59,61.59,0,0,0-.322-7.326,28.859,28.859,0,0,1,9.909,15.687C-74.1,212.24-95.555,239.527-116.833,251.24Z" transform="translate(188.351 -161.077)" fill="#fdecce" stroke="#0b314b" stroke-width="1"/>
      <path id="Path_52" data-name="Path 52" d="M-167.953,166.572a.371.371,0,0,0-.578.45,6.756,6.756,0,0,1,1.006,2.239c.108.839-.5,2.192-1.528,1.368-1.494-1.193-.047-3.295.77-4.434.249-.345-.293-.743-.578-.448-1.036,1.068-2.138,2.222-2.069,3.824a2.761,2.761,0,0,0,2.207,2.618,2.217,2.217,0,0,0,2.4-1.986A4.252,4.252,0,0,0-167.953,166.572Z" transform="translate(213.793 -154.405)" fill="#fdecce" stroke="#0b314b" stroke-width="1"/>
      <path id="Path_53" data-name="Path 53" d="M-162.65,169.384a7.2,7.2,0,0,0-2.665-3.1c-1.016-.664-2.5-1.371-3.723-.952a.465.465,0,0,0-.108.839.594.594,0,0,0,.059.025.32.32,0,0,0-.266.48,6.736,6.736,0,0,0,6.166,3.642A.63.63,0,0,0-162.65,169.384Zm-6.112-3.051,0,0a16.365,16.365,0,0,1,2.65,1,6.18,6.18,0,0,1,1.777,1.686A6.532,6.532,0,0,1-168.763,166.333Z" transform="translate(216.038 -155.042)" fill="#fdecce" stroke="#0b314b" stroke-width="1"/>
      <path id="Path_54" data-name="Path 54" d="M-180.966,184.684a4.9,4.9,0,0,0-2.771-3.5.431.431,0,0,0-.667.029,5.237,5.237,0,0,0-.9,4.771c.376,1.208,1.577,2.537,2.98,2.256C-180.72,187.917-180.666,185.944-180.966,184.684Zm-1.91,2.352c-1.048.01-1.518-1.878-1.565-2.608a4.776,4.776,0,0,1,.436-2.252,7.151,7.151,0,0,1,1.457,1.636C-182.189,184.463-181.318,187.022-182.875,187.036Z" transform="translate(192.47 -131.918)" fill="#fdecce" stroke="#0b314b" stroke-width="1"/>
      <path id="Path_55" data-name="Path 55" d="M-184.287,180.929c-.6.308-.18,1.238.453,1.07.106-.029.273-.079.475-.138.012.017,0,.034.02.052,1.075,1.233,2.53,2.746,4.348,2.468a2.722,2.722,0,0,0,2.173-2.146C-176.059,178.483-182.7,180.115-184.287,180.929Zm4.373,2.377a5.854,5.854,0,0,1-2.746-1.646c1.846-.522,4.953-1.25,4.72.349A1.64,1.64,0,0,1-179.915,183.306Z" transform="translate(193.865 -133.629)" fill="#fdecce" stroke="#0b314b" stroke-width="1"/>
      <path id="Path_56" data-name="Path 56" d="M-178.658,185.028c-.475-1.334-1.72-2.847-3.265-2.8a.569.569,0,0,0-.285,1.053l.054.027a.309.309,0,0,0-.187.145,4.346,4.346,0,0,0,2.4,6.1.581.581,0,0,0,.578-.155A4.406,4.406,0,0,0-178.658,185.028Zm-1.358,3.2a3.639,3.639,0,0,1-1.7-4.5.261.261,0,0,0-.01-.18,3.543,3.543,0,0,1,1.818,1.769A3.255,3.255,0,0,1-180.016,188.227Z" transform="translate(196.388 -130.176)" fill="#fdecce" stroke="#0b314b" stroke-width="1"/>
      <path id="Path_57" data-name="Path 57" d="M-170.708,195.52c-1.08,1.149.14,2.458,1.129,3.11a6.643,6.643,0,0,0,5.261.866l.01-.007c.155.148.308.293.467.423.381.315,1.1.034.908-.529C-163.623,197.3-168.517,193.187-170.708,195.52Zm2.918,2.542a4.856,4.856,0,0,1-1.27-.79c-.549-.564-.571-1.021.315-.935,1.545.153,2.6,1.255,3.62,2.328A6.913,6.913,0,0,1-167.789,198.062Z" transform="translate(213.507 -111.782)" fill="#fdecce" stroke="#0b314b" stroke-width="1"/>
      <path id="Path_58" data-name="Path 58" d="M-163.583,193.292a3.109,3.109,0,0,0-3.209,1.078c-1.174,1.567-.586,3.706-.054,5.391a.422.422,0,0,0,.167.229,4.619,4.619,0,0,0-.305.381.668.668,0,0,0,.908.906C-164.353,200.2-159.636,194.4-163.583,193.292Zm-2.461,5.987a6.57,6.57,0,0,1-.189-3.543,1.924,1.924,0,0,1,2.335-1.3C-162.21,195.021-164.579,197.667-166.043,199.278Z" transform="translate(218.848 -114.169)" fill="#fdecce" stroke="#0b314b" stroke-width="1"/>
      <path id="Path_59" data-name="Path 59" d="M-151.866,177.358c-.687-1.656-2.712-2.372-3.94-3.561a.714.714,0,0,0-1.117.861c.027.044.071.084.1.128a.417.417,0,0,0-.052.086,4.782,4.782,0,0,0,.664,4.538c.827,1.107,2.473,2.2,3.789,1.208A2.781,2.781,0,0,0-151.866,177.358Zm-3.322,1.154a4.076,4.076,0,0,1-.849-2.943c1.184.9,2.847,1.553,2.938,3.017C-153,180.126-154.6,179.226-155.188,178.512Z" transform="translate(233.901 -142.784)" fill="#fdecce" stroke="#0b314b" stroke-width="1"/>
      <path id="Path_60" data-name="Path 60" d="M-150.88,172.322a7.5,7.5,0,0,0-5.832.249c-.529.315-.352,1.324.34,1.248,2.136-.241,4.53-.817,6.442.647s-.906,1.265-1.713,1.075a16.324,16.324,0,0,1-3.829-1.474.565.565,0,0,0-.568.977c1.73,1.024,4.072,2.306,6.157,2.1,1.08-.106,2.448-.716,2.426-1.993C-147.482,173.6-149.674,172.72-150.88,172.322Z" transform="translate(234.116 -145.332)" fill="#fdecce" stroke="#0b314b" stroke-width="1"/>
      <path id="Path_61" data-name="Path 61" d="M-148.238,165.278l-.047-.015a.66.66,0,0,0-.153-.025l-.015,0-.025,0a.643.643,0,0,0-.153.015,7.714,7.714,0,0,0-4.774,1.89c-1.093,1-1.764,2.859-.357,3.915,1.149.864,2.815.308,3.809-.536a5.971,5.971,0,0,0,2.178-4.651A.679.679,0,0,0-148.238,165.278Zm-1.878,3.142c-.48.694-1.462,1.722-2.424,1.5-1.432-.335.608-2.082,1.085-2.382a9.614,9.614,0,0,1,2.16-.987A6.337,6.337,0,0,1-150.115,168.421Z" transform="translate(237.714 -155.004)" fill="#fdecce" stroke="#0b314b" stroke-width="1"/>
    </g>
    <path id="Path_86" data-name="Path 86" d="M102.8,374.563c-.294-12.8-10.608-21.369-12.159-33.759v0c-.009-.08-.024-.158-.033-.238a.381.381,0,0,0-.192-.294,3.468,3.468,0,0,0-.8-.711,3.635,3.635,0,0,0-1.78-.612.313.313,0,0,0-.3.144c-.165-.068-.358-.034-.389.195-1.124,8.1-8.233,13.263-12.029,20.1-2.981,5.366-6.357,12.628-5.058,18.949a7.557,7.557,0,0,0-1.716-.961,6.3,6.3,0,0,0-4.093-.182c-2.5.878-3.651,3.49-3.7,6.1-.116,6.843,6.386,12.184,12.694,11.569,6.2-.606,11.039-7.012,9.058-13.427-1.275-4.133-5.674-7.049-8.921-5.265-.784-6.083,4.046-14.044,7.884-18.045,2.748-2.867,5.334-4.888,6.6-8.769.344,3.592,2.093,6.268,4.3,9.132a36.263,36.263,0,0,1,7.238,16.286,4.155,4.155,0,0,0-2.79-1.555c-2.646-.266-4.816,1.765-5.775,4.163-2.451,6.134,1.918,12.549,7.52,14.4,6.294,2.083,12.21-4.03,12.059-10.662C110.327,376.94,106.329,373.068,102.8,374.563Zm-29.2,2.856c2.7-1.834,6.457.864,7.512,4.357a9.09,9.09,0,0,1-1.7,8.457,9.623,9.623,0,0,1-12.559,1.821,10.636,10.636,0,0,1-4.1-4.517c-1.75-3.725-1.5-10.106,4.656-9.2,2.5.369,4.286,3.378,6.809,2.442a.324.324,0,0,0-.165-.624,3.408,3.408,0,0,1-2.153-.6l.007-.009a5.394,5.394,0,0,1,1.381-1.872A.279.279,0,0,0,73.6,377.419Zm22.952-14.853c-2.834-4.806-7.376-8.4-8.236-14.257-.042-.286-.438-.232-.5.016a.462.462,0,0,0-.629.272c-2.362,6.261-8.285,9.6-11.312,15.547-1.9,3.742-4.216,8.174-3.078,12.412a6.349,6.349,0,0,0-1.831,2.4c-.211-.145-.42-.292-.628-.437a.179.179,0,0,0,.119-.173c-.2-8.6,4.349-17.685,9.349-24.258,3.211-4.224,8.143-8.481,7.964-14.322a3.908,3.908,0,0,1,1.33.717c.306.255.521.629.864.787.414,5.069,2.574,9.577,4.987,13.952,3.516,6.375,6.622,12.237,7.18,19.688a5.848,5.848,0,0,0-1.394,1.267.575.575,0,0,0-.1.176c-.116-.153-.232-.308-.346-.462a.447.447,0,0,0,.239-.425A28.5,28.5,0,0,0,96.553,362.565ZM99,375.686a5.319,5.319,0,0,1,.563.5,10.464,10.464,0,0,0-2.141-1.25A1.751,1.751,0,0,1,99,375.686Zm8.286,11.286c-3.5,5.449-10.354,4.8-13.974-.23a9.609,9.609,0,0,1-1.884-6.9,5.93,5.93,0,0,1,1.7-3.851q1.033-1.984,3.247-.825c.073-.028.143-.046.214-.069.526.278,1.044.573,1.546.895.75.479,1.4,1.1,2.135,1.586a.226.226,0,0,0,.349-.138,3.913,3.913,0,0,0,2.444,1.7.337.337,0,0,0,.172-.651,4.692,4.692,0,0,1-2.033-1.459.5.5,0,0,0,.241-.13c2.717-2.655,6.822-.828,7.631,2.771C109.645,382.236,108.634,384.874,107.285,386.973Z" transform="matrix(0.602, 0.799, -0.799, 0.602, -1271.097, 248.672)" fill="#fdecce" stroke="#0b314b" stroke-width="1"/>
    <g id="Group_22" data-name="Group 22" transform="translate(-1125.525 250.173)">
      <path id="Path_87" data-name="Path 87" d="M-37.743,150.774c-17.035-4.087-33.557,6.728-39.024,22.9-7.07-1.659-57-6.312-52.873,7.02a.349.349,0,0,0,.128.165c-.069,20.783,2.953,41.908,4.429,62.627,1.521,21.317,2.69,42.659,4.235,63.973a1.112,1.112,0,0,0,.723.989c5.012,6.607,15.072,7.916,22.759,8.317,9.794.512,20.626.485,28.783-5.677a1.407,1.407,0,0,0,.394-.47.993.993,0,0,0,1.053-.876q5.913-33.02,12.168-65.974,2.986-15.761,6.063-31.509c1.09-5.591,2.456-11.258,3.58-16.949-.667,8.937-1.09,17.911-.935,26.841a.28.28,0,0,0,.527.138.835.835,0,0,0,.522.3C-3.475,228.773-1.436,159.487-37.743,150.774Zm-13.421,60.865q-3.252,16.451-6.413,32.922-6.135,31.987-11.853,64.052a1.293,1.293,0,0,0-.477.214c-6.974,5-15.259,5.485-23.566,5.374-8.177-.108-18.972-.709-25.111-6.868-1.11-21.78-2.813-43.549-4.395-65.3-1.506-20.709-1.757-42.174-5.34-62.637a.5.5,0,0,0-.231-.357c2.655-5.928,19.467-5.546,24.223-5.583a158.521,158.521,0,0,1,27.053,1.91,35.932,35.932,0,0,0-.551,17.171c-2.618.054-5.2,0-7.668-.079-11.27-.391-32.939-1.764-39.243-12.975-.308-.549-1.289-.175-1.046.44,5.15,12.9,27.26,14.068,38.97,14.668,2.869.148,6.142.258,9.547.189a40.16,40.16,0,0,0,17.2,23.251,1.142,1.142,0,0,0,1.656-.674c4.023-9.717,8.088-19.407,11.853-29.223C-48.514,195.859-49.636,203.927-51.164,211.639Zm7.259,8.871c-.337-.029-.669-.044-1.014-.084a.827.827,0,0,0-.573.148c1.361-11.678,2.087-23.465,2.842-35.2,2.633,5.175,5.586,10.155,7.943,15.48,1.991,4.493,3.445,7.98-1.658,11.125a70.83,70.83,0,0,1-7.759,3.657c-.455.207-.108.822.315.75,4.525-.763,13.273-3.307,13.453-9.247.093-3.019-2.318-6.814-3.524-9.412a76.287,76.287,0,0,0-7.946-13.932.756.756,0,0,0-.7-.317c.022-.315.042-.628.062-.94a.768.768,0,0,0-.925-.832c.027-.4.074-.81.094-1.216a.355.355,0,0,0-.251-.384.417.417,0,0,0-.541-.443,6.084,6.084,0,0,1-3.145.027c-1.078-.234-1.535,1.435-.455,1.654a4.942,4.942,0,0,0,2.446-.148q-1.41,3.023-2.781,6.061a.424.424,0,0,0-.64-.157c-2.18,1.612-4.289,3.31-6.378,5.042s-5.332,3.657-6.794,5.96c-1.937,3.051,2.047,6.189,4.267,7.793.706.512,1.585-.472,1.161-1.164-.753-1.233-2.079-2.146-2.751-3.369-1.334-2.424.861-3.627,2.527-5.19,2.756-2.581,5.507-5.177,8.147-7.879-2.276,5.1-4.474,10.232-6.636,15.394-1.061,2.53-1.983,5.423-3.275,7.845-1.415,2.653-.846,3.76-3.841,2.234-3.607-1.843-6.688-6.489-8.686-9.808a36.121,36.121,0,0,1-3.922-9.26c1.031-.049,2.069-.125,3.108-.219a38.96,38.96,0,0,0,12.067,18.037.376.376,0,0,0,.532-.532A50.46,50.46,0,0,1-70,194.294c9.006-1.056,17.742-4.09,21.76-11.863a.991.991,0,0,0-1.71-1,21.776,21.776,0,0,1-4.606,4.776,1.077,1.077,0,0,0-.861-.662c-2.33-.305-8.165-.015-9.469-2.414-.7-1.28.689-6.659,1.789-7.537,1.639-1.314,5.522.6,7.525,1.193,2.645.785,5.263,1.663,7.926,2.382.534.143.91-.659.386-.918A64.29,64.29,0,0,0-60.768,173.1c-2.608-.6-4.107.116-5.037,2.581-.8,2.119-2.229,7.8-.507,9.833a3.608,3.608,0,0,0,2.224.967A61.021,61.021,0,0,0-56.41,187.5a34.816,34.816,0,0,1-14.25,4.545,28.8,28.8,0,0,1,.121-15.657C-66.41,162.521-51,153.178-37.231,159.583-11.1,171.739-13.7,214.641-43.8,218.9-44.606,219.016-44.552,220.244-43.9,220.51Zm.433.034C-10.616,217.432-9.4,169.18-37.5,157.56c-13.364-5.524-27.936,2.466-33.463,15.222a30.452,30.452,0,0,0-1.388,19.449c-1,.094-2,.167-3,.217-2.815-13.91,2.544-28.921,15.655-36.463,19.715-11.339,39.214,3.8,44.086,23.315C-10.838,198.42-21.36,222.072-43.472,220.544Z" transform="translate(129.882 -149.907)" fill="#fdecce" stroke="#0b314b" stroke-width="1"/>
      <path id="Path_88" data-name="Path 88" d="M-74.793,173.275a52.019,52.019,0,0,0-1.408-10.16c-.413-1.636-.814-2.808-2.542-3.263-4.806-1.272-11.459,2.631-14.988,5.448a.769.769,0,0,0-.253.977.488.488,0,0,0-.411.827c2.653,2.731,5.421,5.337,8.246,7.889,2.124,1.919,4.5,4.882,7.244,5.928C-73.9,182.825-74.656,176.191-74.793,173.275Zm-4.065,5.544c-1.494-.315-3.812-3.073-5.015-4.09-3.081-2.6-6.12-5.246-9.215-7.83a1,1,0,0,0,.738-.219c3.009-2.387,8.106-5.4,12.148-4.86,3.57.475,3.327,9.3,3.455,12.168C-76.671,175.743-75.9,179.442-78.858,178.819Z" transform="translate(181.498 -135.741)" fill="#fdecce" stroke="#0b314b" stroke-width="1"/>
      <path id="Path_89" data-name="Path 89" d="M-81.617,159.068c-1.405-3.383-6.019-4.567-9.257-4.83-2.045-.165-8.054-.883-8.359,2.36-.182,1.942,2.3,4.38,3.273,5.859,1.772,2.7,3.516,5.418,5.332,8.086a.965.965,0,0,0,1.437.182.553.553,0,0,0,.913.251,57.8,57.8,0,0,0,4.958-6.6C-82.277,162.784-80.788,161.064-81.617,159.068Zm-2.033,2.441c-.133,1.393-1.85,3.339-2.591,4.506-.842,1.331-1.737,2.626-2.63,3.92a.922.922,0,0,0-.13-.342c-1.828-2.9-3.74-5.751-5.615-8.622-.6-.918-2.613-3.073-2.106-4.09.539-1.078,3.233-.783,4.434-.753C-89.078,156.2-83.224,157.021-83.65,161.509Z" transform="translate(174.637 -143.848)" fill="#fdecce" stroke="#0b314b" stroke-width="1"/>
      <path id="Path_90" data-name="Path 90" d="M-64.582,187.058a.782.782,0,0,0-.431-.913c-17.648-8.4-41.039-13.467-60.636-12.284a.474.474,0,0,0-.416.423c-.221-.074-.532.044-.514.325.893,15.682,2.635,31.307,3.57,46.992.935,15.707.989,31.426,1.705,47.135a.732.732,0,0,0,.918.691.549.549,0,0,0,.162.342c5.281,5.047,12.4,5.864,19.393,6.624,7.879.859,15.557.832,22.156-4.028a.907.907,0,0,0,.14-.153.6.6,0,0,0,.97-.354c6.4-27.437,10.209-55.811,14.245-83.683A1.02,1.02,0,0,0-64.582,187.058ZM-95.3,179.029c9.287,1.991,18.074,5.148,27.068,8.017A87.036,87.036,0,0,1-96.1,188.082c-8.952-1.257-24.253-4.779-29.179-13.3C-115.26,176.2-105.233,176.9-95.3,179.029Zm16.553,91.693a.748.748,0,0,0-.866.044c-10.145,7.033-30.119,5.185-39.853-1.983a.51.51,0,0,0-.347-.1,517.325,517.325,0,0,0-5.7-91.89c4.375,7.242,17.023,10.943,24.447,12.52,11.607,2.461,23.677,1.865,35.225-.6a.905.905,0,0,0,.64-.453C-69.541,215.745-75,243.164-78.744,270.722Z" transform="translate(134.706 -115.165)" fill="#fdecce" stroke="#0b314b" stroke-width="1"/>
      <path id="Path_91" data-name="Path 91" d="M-108.283,212.076c-.113-.458-.746-.32-.783.106a1.805,1.805,0,0,1-1.55,1.646,1.587,1.587,0,0,1-1.5-1.7c.017-.433-.694-.544-.768-.1a2.488,2.488,0,0,0,2.269,2.931A2.35,2.35,0,0,0-108.283,212.076Z" transform="translate(154.663 -59.574)" fill="#fdecce" stroke="#0b314b" stroke-width="1"/>
      <path id="Path_92" data-name="Path 92" d="M-107.237,211a3,3,0,0,0-3.92-.047c-.495.389.153,1.23.677.876a1.852,1.852,0,0,1,2.4.16c.684.746.239,1.5.288,2.352a.526.526,0,0,0,.785.45C-105.717,214-106.317,211.853-107.237,211Z" transform="translate(156.976 -61.762)" fill="#fdecce" stroke="#0b314b" stroke-width="1"/>
      <path id="Path_93" data-name="Path 93" d="M-109.044,208.436c-.074-.485-.814-.431-.928,0a4.187,4.187,0,0,1-1.147,2.2c-.426.389-1.427.6-1.57,1.247-.236,1.051,1.2.839,1.132.278.069-.02.14-.037.209-.064a3.592,3.592,0,0,0,.512-.241,3.87,3.87,0,0,0,1.07-.908A3.222,3.222,0,0,0-109.044,208.436Z" transform="translate(154.959 -64.915)" fill="#fdecce" stroke="#0b314b" stroke-width="1"/>
      <path id="Path_94" data-name="Path 94" d="M-118.668,186.746a1.844,1.844,0,0,1-2.429.118,1.558,1.558,0,0,1-.4-1.292,2,2,0,0,1,.236-.748c.059-.106.123-.212.187-.315a.259.259,0,0,0,.116-.069.3.3,0,0,0,.544-.059c.212-.837-.965-.824-1.432-.522a2.749,2.749,0,0,0-.95,2.933,2.808,2.808,0,0,0,5.094.7A.616.616,0,0,0-118.668,186.746Z" transform="translate(140.092 -100.587)" fill="#fdecce" stroke="#0b314b" stroke-width="1"/>
      <path id="Path_95" data-name="Path 95" d="M-118.342,182.655a2.266,2.266,0,0,0-3,2.3.383.383,0,0,0,.765,0c.1-.839,1.137-1.659,1.954-1.169.694.418.635,1.2.46,1.878a.52.52,0,0,0,.861.5C-116.28,185.076-117.05,183.147-118.342,182.655Z" transform="translate(142.347 -102.273)" fill="#fdecce" stroke="#0b314b" stroke-width="1"/>
      <path id="Path_96" data-name="Path 96" d="M-118.408,181.089c-.126-.694-1.142-.482-1.176.16a1.581,1.581,0,0,1-2.965.812c-.266-.465-1.1-.15-.891.374a2.719,2.719,0,0,0,3.1,1.72A2.6,2.6,0,0,0-118.408,181.089Z" transform="translate(139.242 -104.988)" fill="#fdecce" stroke="#0b314b" stroke-width="1"/>
      <path id="Path_97" data-name="Path 97" d="M-104.542,185.607c-.381.49-1.294,1.607-2.052,1.2-.258-.14-.47-1.046-.044-1.1a.585.585,0,0,0,0-1.169c-1.656-.111-2.055,2.119-1.159,3.172,1.344,1.585,3.839.148,4.129-1.592C-103.594,185.671-104.182,185.144-104.542,185.607Z" transform="translate(161.461 -99.329)" fill="#fdecce" stroke="#0b314b" stroke-width="1"/>
      <path id="Path_98" data-name="Path 98" d="M-106.259,182.216a2.251,2.251,0,0,0-2.7,2.471c.123.733,1.348.566,1.3-.175s.979-1,1.518-.642a3.6,3.6,0,0,1,1.159,2.3c.133.687,1.213.519,1.2-.162C-103.8,184.413-104.443,182.5-106.259,182.216Z" transform="translate(160.393 -102.756)" fill="#fdecce" stroke="#0b314b" stroke-width="1"/>
      <path id="Path_99" data-name="Path 99" d="M-111.932,197.263c-.613.566-2.19,1.88-3.091,1.152-.367-.3-.7-1.5.007-1.59.568-.071.61-.923,0-.92-1.585.007-1.875,2.04-1.122,3.113a2.281,2.281,0,0,0,2.316.819,4.4,4.4,0,0,0,2.712-1.939C-110.741,197.406-111.516,196.879-111.932,197.263Z" transform="translate(149.38 -82.717)" fill="#fdecce" stroke="#0b314b" stroke-width="1"/>
      <path id="Path_100" data-name="Path 100" d="M-116.56,194.832c-.251.33.241.81.571.573a2.788,2.788,0,0,1,4.358,1.526.414.414,0,0,0,.81-.108C-110.77,194.047-114.892,192.618-116.56,194.832Z" transform="translate(149.242 -85.869)" fill="#fdecce" stroke="#0b314b" stroke-width="1"/>
      <path id="Path_101" data-name="Path 101" d="M-109.079,193.383a2.293,2.293,0,0,1-2.306,1.422,2.1,2.1,0,0,1-1.563-2.446.5.5,0,0,0-.955-.263,3.21,3.21,0,0,0,1.991,4.036,3.165,3.165,0,0,0,4.006-2.254C-107.779,193.206-108.719,192.7-109.079,193.383Z" transform="translate(153.001 -88.793)" fill="#fdecce" stroke="#0b314b" stroke-width="1"/>
    </g>
    <g id="Group_31" data-name="Group 31" transform="matrix(0.966, 0.259, -0.259, 0.966, -2125.941, 848.04)">
      <path id="Path_153" data-name="Path 153" d="M151.753,285.516c-21.619-5.989-45.64-3.482-67.694-2.1a.615.615,0,0,0-.524.335q-2.541-7.434-5.288-14.791c-1.094-2.911-2.917-10.062-6.641-11.257a4.648,4.648,0,0,0-5.94-.679c-3.343,2.091-3,6.65-2.135,9.913a70.24,70.24,0,0,0,9.312,19.831c-5.352,3.2-3.37,12.492-2.818,17.559.888,8.127,2.968,16.305,7.365,23.282A33.932,33.932,0,0,0,95.546,341.77c-9.678,13.076,43.459,14.193,35.838,1.225,11.072-3.321,19.792-11.046,25.443-22.137,3.758-7.377,7.007-16.443,7.582-24.75C164.834,289.929,156.663,286.876,151.753,285.516ZM69.172,258.582c.288-.017.586-.027.9-.029,5.755,1.776,9.369,17.141,11.031,21.922,2.2,6.314,4.258,12.676,6.294,19.045-1.188-.308-2.44-.659-3.7-1.066-2.768-5.579-5.93-10.958-8.82-16.475-1.372-2.618-2.718-5.25-4.014-7.907C69.282,270.82,63.513,261.334,69.172,258.582Zm90.917,36.286c3.365,9.371-18.4,9.159-22.927,9.413a167.665,167.665,0,0,1-21.361-.205,162.779,162.779,0,0,1-22.877-3.287c-1.018-.22-2.494-.527-4.178-.932-1.264-4.214-2.613-8.4-4.005-12.571,12.456-.444,24.911-1.118,37.373-.525a155.9,155.9,0,0,1,19.216,2.053c3.985.69,15.5,1.816,18.76,5.755A.438.438,0,0,0,160.089,294.868Zm-89.675-14.36a67.889,67.889,0,0,1-4.393-9.339,41.9,41.9,0,0,1-1.5-4.5l-.349-1.438q-1.416-5.09,2.8-6.292c-2.309,2.416-1.018,7.175.435,10.337a243.743,243.743,0,0,0,15.06,28.76c-.239-.085-.474-.173-.708-.261a.347.347,0,0,0-.034-.31C78.014,291.74,73.75,286.478,70.414,280.508Zm10.157,16.8c-3.836-1.6-7.038-3.805-7.336-6.8a.344.344,0,0,0,.2-.259c.071-.646.607-.774,1.111-.937C76.479,292.1,78.516,294.782,80.571,297.3Zm49.523,46.253c3.224,6.038-15.363,6.87-17.647,6.843-4.475-.052-18.925-.322-16.214-8.393,7.329,2.428,15.506,3.012,23.6,2.8a44.61,44.61,0,0,0,10.2-1.449A.658.658,0,0,0,130.094,343.556Zm17.356-11.892c-7.212,7.5-16.39,11.077-26.71,11.531-9.49.418-20.548-.039-29.153-4.363-8.132-4.088-13.832-11.933-16.9-20.339a63.554,63.554,0,0,1-3.35-16.007c-.415-4.527-1.716-11.45,2.069-14.86.173.261.339.525.513.783a1.514,1.514,0,0,0-.939.817.5.5,0,0,0-.695.286c-1.8,6.313,9.242,9.725,13.634,11,.651.19,1.31.356,1.964.534l.046.141a.6.6,0,0,0,1.061.159,151.065,151.065,0,0,0,28.75,4.264c5.4.324,47.791,2.318,43.886-9.781a.479.479,0,0,0,.022-.234,5.145,5.145,0,0,0-.252-.957c0-.01-.005-.01-.008-.019-1.311-3.6-6.286-4.236-9.666-5.139a126.3,126.3,0,0,0-21.236-3.661c-15.241-1.371-30.62-.8-45.87.144a.682.682,0,0,0-.286.08c-.154-.456-.317-.908-.473-1.364a.673.673,0,0,0,.2.029c20.561-1.288,41.448-2.516,61.872.974,4.507.769,9.437,1.759,13.276,4.383,5.483,3.749,3.119,10.216,1.725,15.543C158.418,315.219,154.41,324.422,147.45,331.664Z" transform="translate(-62.944 -256.246)" fill="#fdecce" stroke="#0b314b" stroke-width="1"/>
      <path id="Path_154" data-name="Path 154" d="M149.376,283.787c-6.491-1.679-13.235-2.379-19.875-3.245a55.006,55.006,0,0,0-10.233-.513c-4.136.224-7.187-.744-11.087-2.13a12.684,12.684,0,0,0-6.281-.993c-3.541.463-6.416,2.589-10.116,2.414-5.145-.242-9.408-3.348-14.5-1.149-.208.091-.059.439.156.369,5.511-1.806,10.438,2.345,15.968,1.843,2.584-.234,4.812-1.588,7.29-2.191,4.124-1,7.123.964,10.853,2.284,5.467,1.933,12.012.529,17.778,1.347,6.6.935,13.2,1.843,19.775,2.953C149.74,284.886,150.028,283.956,149.376,283.787Z" transform="translate(-53.06 -241.963)" fill="#fdecce" stroke="#0b314b" stroke-width="1"/>
      <path id="Path_155" data-name="Path 155" d="M85.74,275.667c-3.48-2.209-1.017-6.877-1.989-10.077-.817-2.687-3.258-2.47-4.549-4.549a.706.706,0,0,0-1.306.352,2.31,2.31,0,0,0,1.318,2.111c1.1.725,1.933.84,2.643,2.072a7.056,7.056,0,0,1,.544,4.019c-.09,2.79.022,5.725,2.992,6.9C85.884,276.687,86.154,275.929,85.74,275.667Z" transform="translate(-52.564 -253.147)" fill="#fdecce" stroke="#0b314b" stroke-width="1"/>
      <path id="Path_156" data-name="Path 156" d="M93.1,265.281c.154-2.075-1.36-3.844-2.877-5.057a.817.817,0,0,0-1.155,1.154c1.459,1.625,2.9,3.16,1.7,5.491a15.052,15.052,0,0,0-1.516,2.929c-.513,1.952.412,3.607,1.6,5.1.376.473,1.028-.129.791-.612a5.493,5.493,0,0,1,.161-5.9A6.928,6.928,0,0,0,93.1,265.281Z" transform="translate(-44.975 -253.628)" fill="#fdecce" stroke="#0b314b" stroke-width="1"/>
      <path id="Path_157" data-name="Path 157" d="M107.35,261.726c-.481-.684-1.789-.295-1.457.615.718,1.965.691,3.98-1.123,5.323-1.056.783-2.438,1-3.141,2.226a3.247,3.247,0,0,0,1.215,4.434.362.362,0,0,0,.435-.566c-2.746-3.1,3-4.408,4.212-6.672A5.214,5.214,0,0,0,107.35,261.726Z" transform="translate(-36.389 -252.683)" fill="#fdecce" stroke="#0b314b" stroke-width="1"/>
      <path id="Path_158" data-name="Path 158" d="M123.363,261.126c-.041-.91-1.479-1.211-1.669-.227-.566,2.953,1.633,6.042-1.259,8.434-1.654,1.369-4.134,1.277-5.725,2.853-1.176,1.166-2.492,5.215.291,5.232.225,0,.39-.317.2-.476q-.935-.943.495-2.145a2.418,2.418,0,0,1,2.165-2.4c.832-.33,1.691-.552,2.506-.928a6.911,6.911,0,0,0,2.626-1.876C124.9,267.163,123.487,263.867,123.363,261.126Z" transform="translate(-27.952 -253.439)" fill="#fdecce" stroke="#0b314b" stroke-width="1"/>
    </g>
    <g id="Group_32" data-name="Group 32" transform="matrix(0.875, 0.485, -0.485, 0.875, -2052.873, 363.764)">
      <path id="Path_159" data-name="Path 159" d="M-104.847,486.238c-3.226-2.045-7.387-1.71-10.753-.14,1.508-21.534-10.726-43.584-35.067-40.284-20.453,2.771-36.686,23.485-29.213,43.854-5.391,1.211-8.991,7.559-5.635,12.54,2.512,3.728,6.747,3.46,10.288,1.513,1.964,10.426,4.23,20.916,6.511,31.258a.953.953,0,0,0,1.228.642.871.871,0,0,0,.273.261c11.952,7.53,33.9,9.006,44.822-1.454a1,1,0,0,0,.246-1.2c2.717-11.388,4.825-24.12,4.87-35.823,5.273,3.755,13.871,4.621,15.955-3.049A7.481,7.481,0,0,0-104.847,486.238Zm-19.272,46.66c-10.825,9.8-30.247,6.668-42.282,1.587a.887.887,0,0,0-.436-.062,166.029,166.029,0,0,0-6.8-31.723,14.38,14.38,0,0,0,1.715-1.479c.677,2.116,3.206,3.9,5.47,4.606.4,6.046,1.2,12.2,2.19,18.17.6,3.588,1.481,7.385,5.067,8.979a.638.638,0,0,0,.943-.588,3.052,3.052,0,0,0,1.179-1.351,18.052,18.052,0,0,0-.342-3.506c-.416-3.1-.834-6.194-1.2-9.3-.517-4.4-.662-8.9-1.513-13.246a8.632,8.632,0,0,0,3.376-3.356,8.144,8.144,0,0,0,3.536,3.332c-.266,4.857-.047,9.734-.121,14.6-.054,3.561-.792,7.574-.089,11.058.615,3.046,3.9,5.667,6.346,2.638a.765.765,0,0,0,.069-.125.625.625,0,0,0,.564-.438c1.535-3.792.384-9.6.1-13.613a116.922,116.922,0,0,0-1.607-13.568,8.608,8.608,0,0,0,5.426-4.422,6.72,6.72,0,0,0,.957,1.654c-.546,7.291-.426,14.656-.337,21.962.042,3.529-.15,6.568,3.288,8.019l.027.01c.089.037.17.079.263.113a.55.55,0,0,0,.108.015c1.09.3,2.379-.551,2.9-2.03,1.137-3.223.18-8.209.162-11.543-.02-4.54.15-9.142-.288-13.662a.812.812,0,0,0-.074-.268c.086-.01.17-.012.256-.025a7.546,7.546,0,0,0,4.323-2.616c-.492,7.072-.482,14.186-.522,21.27-.015,2.606-.989,6.083,1.885,7.217a.892.892,0,0,0,.9-.236l.514-.568a.768.768,0,0,0,.111-.827c2.367-1.39,1.873-5.362,2.03-7.682q.613-9.01.933-18.047a5.564,5.564,0,0,0,1.553-.012,6.9,6.9,0,0,0,4.264-2.857C-121.533,511.389-122.933,522.4-124.119,532.9Zm-41.266-26.822c.108.017.226.049.33.059a8.132,8.132,0,0,0,3.7-.561,84.469,84.469,0,0,0,.94,12.66c.207,1.809.421,3.615.674,5.418q.148,1.115.332,2.229a11.26,11.26,0,0,1,.071,5.3c-3.356-3.157-3.482-7.889-4.09-12.257C-164.019,514.639-164.548,510.328-165.385,506.076Zm12.776-.829a7.562,7.562,0,0,0,3.26.512l.025,0c.3,4.095.778,8.179,1.065,12.279.125,1.781,1.543,10.948.77,13.679a.725.725,0,0,0-.684.13c-3.342,2.441-3.228-6.969-3.238-8.074-.017-2.458-.089-4.911-.194-7.365A89.077,89.077,0,0,0-152.609,505.247Zm15.574,13.069q0,2.927,0,5.854c0,.157-.17,5.022-.918,6.629-3.3-2.22-1.973-11.784-2.062-14.951-.113-4.026-.256-8.061-.613-12.075a6.658,6.658,0,0,0,3.871,1.627.819.819,0,0,0-.061.229C-137.2,509.826-137.035,514.1-137.035,518.316Zm8.2,10.4a.586.586,0,0,0-.214.229c-.551-1.634-.62-11.831-.63-12.5-.074-4.67-.135-9.346-.468-14.006a.363.363,0,0,0-.305-.347,8.2,8.2,0,0,0,.785-1.314A6.134,6.134,0,0,0-126.5,503.5q-.509,6.245-.879,12.5C-127.515,518.269-126.767,527.43-128.836,528.717Zm24.437-33.741c-3.657,5.647-10.431,2.035-14.385-.957a.619.619,0,0,0-.455-.135.873.873,0,0,0-1.373.691c.052,1.3.465,2.483.14,3.792a4.231,4.231,0,0,1-3.017,3.13c-3.263.891-5.273-1.959-4.894-4.931.074-.578-.635-.854-1.085-.63a.9.9,0,0,0-1.563.29c-.438,2.64-.588,5.18-3.334,6.55-3.31,1.654-7-1.336-7.033-4.761a.757.757,0,0,0-.583-.706c-.244-.709-1.344-.517-1.567.138-1,2.95-2.618,5.945-6.186,6.088a6.855,6.855,0,0,1-6.277-4.23,6.175,6.175,0,0,0-.069-1.932c-.167-.851-1.4-.753-1.626,0-.839,2.827-1.723,5.554-4.931,6.457a6.487,6.487,0,0,1-4.255-.332c-1.494-.62-3.905-2.345-3.386-4.321a9.577,9.577,0,0,0,.571-1.038c.327-.706-.408-1.745-1.193-1.191-3.174,2.232-8.15,9.331-12.358,4.168-3.57-4.38,1.27-8.421,4.855-10.3a.692.692,0,0,0,.293-.854.9.9,0,0,0-.01-.4c-4.884-19.619,7.463-38.653,27.781-41.342,23.219-3.076,32.776,18.187,32.006,37.917a1.176,1.176,0,0,0,1.088,1.282c-.084.662.436,1.42,1.2,1.117,2.788-1.1,5.6-2.249,8.605-1.056C-104.478,488.662-102.475,492-104.4,494.976Z" transform="translate(186.815 -445.484)" fill="#fdecce" stroke="#0b314b" stroke-width="1"/>
      <path id="Path_160" data-name="Path 160" d="M-173.386,452.058a2.621,2.621,0,0,0-3.477.138,3.778,3.778,0,0,0-.819,2.84,2.707,2.707,0,0,0-3.526,3.3c.832,3.226,5.49,3.285,7.643,1.55C-171.282,458.05-170.807,453.9-173.386,452.058Zm-.817,5.62a3.394,3.394,0,0,1-3.622,1.3c-.753-.2-1.737-.768-1.491-1.71a1.346,1.346,0,0,1,2.151-.615.512.512,0,0,0,.746-.057.771.771,0,0,0,.509-.728c0-.878.076-3.954,1.7-2.062A3.4,3.4,0,0,1-174.2,457.678Z" transform="translate(194.852 -436.745)" fill="#fdecce" stroke="#0b314b" stroke-width="1"/>
      <path id="Path_161" data-name="Path 161" d="M-173.539,457.621c-2.594-1.127-7.323-.17-7.65,3.228a2.762,2.762,0,0,0,3.861,2.894c1.152,2.539,4.309,5.2,6.637,2.335C-168.4,463.251-170.581,458.908-173.539,457.621Zm.827,7.325c-1.831.76-2.539-1.351-3.211-2.67-.007-.017-.02-.025-.029-.039.034-.091.076-.17.106-.268.145-.48-.487-.662-.751-.315a1.887,1.887,0,0,1-.214.187,1.049,1.049,0,0,0-.627.357,2,2,0,0,1-1.432-.2l.015-1.683c.226-.556,1.253-.933,1.8-1.088a4.209,4.209,0,0,1,4.513,1.444C-171.6,461.9-170.965,464.223-172.712,464.947Z" transform="translate(195.008 -428.413)" fill="#fdecce" stroke="#0b314b" stroke-width="1"/>
      <path id="Path_162" data-name="Path 162" d="M-168.669,456.749a2.242,2.242,0,0,0,.532-1.228,2.828,2.828,0,0,0-2.2-2.815c-3.475-.925-6.167,3.236-5.847,6.265a4.64,4.64,0,0,0,6.361,3.821A3.7,3.7,0,0,0-168.669,456.749Zm-1.973,4.412a2.855,2.855,0,0,1-3.374-1.154,3.977,3.977,0,0,1,.335-4.05,3.672,3.672,0,0,1,2.116-1.617,1.9,1.9,0,0,1,1.3.172,1.1,1.1,0,0,1,.3,1.572.664.664,0,0,0-.566.354,1.131,1.131,0,0,1-.322.022c-.546-.052-.556.719-.118.891a2.058,2.058,0,0,0,.406.106.867.867,0,0,0,.253.3A1.889,1.889,0,0,1-170.643,461.161Z" transform="translate(202.302 -435.127)" fill="#fdecce" stroke="#0b314b" stroke-width="1"/>
    </g>
    <g id="Group_34" data-name="Group 34" transform="translate(-1595.068 876.973)">
      <path id="Path_164" data-name="Path 164" d="M-154.969,475.875a39.244,39.244,0,0,0-8.007-8.118c-3.209-2.429-14.508-5.822-15.005-9.9a1.119,1.119,0,0,0-.979-.974c0-.738.049-1.476.079-2.239a.693.693,0,0,0-.042-.253c.391-.135.79-.254,1.176-.4a.817.817,0,0,0-.433-1.575c-.081.022-.16.037-.239.059a16.678,16.678,0,0,0-.17-6.873,1,1,0,0,0-.123-.268,3.908,3.908,0,0,0-.207-1.051.486.486,0,0,0-.453-.312.714.714,0,0,0-.448-.421c-5.448-1.9-11.026-1.818-16.676-.905-4.341.7-10.421,1.078-13.408,4.712a.846.846,0,0,0-1.511.3,13.337,13.337,0,0,0-.2,4.56,9.231,9.231,0,0,0,.637,2.377,6.137,6.137,0,0,0,.851,1.2c-.669.241-.775,1.437.054,1.567,1.038.163,2.089.273,3.142.381.554,9.294-9.159,11.307-14.737,16.381a24.105,24.105,0,0,0-6.341,9.816,45.686,45.686,0,0,0-.037,29.536,39.184,39.184,0,0,0,25.914,23.935c4.1,5.182,10.268,7.04,16.809,6.068,5.546-.824,13.416-3.472,15.249-9.4a.751.751,0,0,0-.194-.8c11.787-6.326,20.771-17.464,22.24-31.273A37.52,37.52,0,0,0-154.969,475.875Zm-41.1-31.669a36.093,36.093,0,0,1,15.857.755.758.758,0,0,0,.263.022,1.628,1.628,0,0,1-.1.207.911.911,0,0,0-.3.453c-3.551,4.259-26.539,6.55-28.746,2.463C-205.925,445.25-200.079,444.824-196.065,444.206Zm-13.605,11.541a26.919,26.919,0,0,1-.271-3.484,17.413,17.413,0,0,1,.069-2.707c2.692,3.991,12.331,1.89,15.773,1.442,2.483-.322,10.8-.433,14.063-3.027a33.255,33.255,0,0,1,.374,4.8A107.363,107.363,0,0,1-209.67,455.747Zm22.2,86.161a17.913,17.913,0,0,1-12.51-3.927,36.842,36.842,0,0,0,12.363.728,48.212,48.212,0,0,0,15.628-4.562C-174.16,539.346-182.613,541.613-187.473,541.908Zm-2.776-5.187c-21.691,1.095-38.141-17.56-37.858-38.456.074-5.34.792-10.81,3.056-15.685,2.911-6.265,7.4-8.379,12.776-12.227,4.373-3.133,7.7-6.988,6.791-12.476a66.193,66.193,0,0,0,25.178-3.024,9.572,9.572,0,0,0,.463,4.333.522.522,0,0,0,.071.133c1.447,4.488,7.175,5.268,11.11,7.424a36.391,36.391,0,0,1,17.943,23.876C-145.491,514.791-167.049,535.55-190.248,536.721Z" transform="translate(230.481 -442.019)" fill="#fdecce" stroke="#0b314b" stroke-width="1"/>
      <path id="Path_165" data-name="Path 165" d="M-164.426,478.563c3.228-2.414,2.862-9.045-.239-11.354a6.256,6.256,0,0,0-.94-.568,5.508,5.508,0,0,0,.034-4.926,5.978,5.978,0,0,0-4.912-3.457,7.3,7.3,0,0,0-7.921,7.116,5.154,5.154,0,0,0-.935-.012c-3.568.3-6.853,4.823-4.833,8.093a5.32,5.32,0,0,0-2.677-.3c-3.223.635-4.744,4.173-4.127,7.161a5.675,5.675,0,0,0-5.04,4.707,5.59,5.59,0,0,0-1.7-1.058c-3.125-1.184-7.5.758-8.17,4.141a6.161,6.161,0,0,0-4.941-.977,5.654,5.654,0,0,0-3.878,3.745c-.854-1.646-3.1-2.562-4.845-2.579a5.567,5.567,0,0,0-5.168,3.31,5.889,5.889,0,0,0,.723,6.238c1.056,1.243,3.447,2.815,5.288,2.456a5.216,5.216,0,0,0,7.21,4.747,5.71,5.71,0,0,0,3.625,4.166,7.076,7.076,0,0,0,7.077-1.676,5.517,5.517,0,0,0,6.383,1.737,5.3,5.3,0,0,0,2.768-2.975,9.276,9.276,0,0,0,4.72,1.518,5.956,5.956,0,0,0,5.293-5.305c4.474,2.335,12.043-1.909,9.577-7.3-.012-.027-.032-.049-.044-.076a6.03,6.03,0,0,0,3.408-5.6c5.012.236,7.257-7.387,4.4-10.854C-164.33,478.637-164.384,478.61-164.426,478.563Zm-7.476-18.418a4.233,4.233,0,0,1,4.471,2.22c.682,1.388.344,2.456-.012,3.75a5.846,5.846,0,0,0-5.6,3.721,7.168,7.168,0,0,0-.989-1.9,6.528,6.528,0,0,0-3.014-2.269C-176.417,463-174.946,460.5-171.9,460.145Zm-13.526,23.724c-.062-.14-.153-.266-.221-.4.711-1.974,2.7-3.7,4.919-3.179,1.9.443,2.66,1.924,3.1,3.588a6.465,6.465,0,0,0-4.112,4.545,5.857,5.857,0,0,0-3.187-1.737A5.983,5.983,0,0,0-185.428,483.868Zm6.317-4.9c-2.119-4.4,8.472-7.087,8.494-1.3-2.192,1.159-3.14,3.521-3.324,5.881a7.064,7.064,0,0,0-1.929-.089A5.532,5.532,0,0,0-179.112,478.964Zm-4.215-5.369c-.155-2.731.9-6.351,4.227-6.533a3.532,3.532,0,0,1,.883.074.526.526,0,0,0,.64.182,4.9,4.9,0,0,1,2.318,1.924,6.642,6.642,0,0,1,.751,3.413,7.161,7.161,0,0,0-1.769.091c-2.013.416-4.141,2.153-4.528,4.045a4.27,4.27,0,0,0-2.589-3A.285.285,0,0,0-183.327,473.595Zm-3.45,1.353a3.619,3.619,0,0,1,3.292.849,6.739,6.739,0,0,1,1.326,2.488.532.532,0,0,0,.231.234,5.317,5.317,0,0,0-4.395,3.9,5.552,5.552,0,0,0-2.648-1.907,4.878,4.878,0,0,0-.549-.106C-189.855,478.263-189.07,475.6-186.777,474.948Zm-2.261,7.557a4.384,4.384,0,0,1,2.092,2.771,4.581,4.581,0,0,1,.049,1.4,6.007,6.007,0,0,0-4.791,5.416,5.881,5.881,0,0,0-2.16-.923A6.388,6.388,0,0,0-195,486.159C-194.639,483.509-191.656,481.127-189.038,482.505Zm-9.422,3.236c2.293.893,2.963,3.194,2.717,5.374a5.5,5.5,0,0,0-1.417.421,4.881,4.881,0,0,0-2.512,2.586.36.36,0,0,0-.062-.076,5.775,5.775,0,0,0-3.359-1.346,5.527,5.527,0,0,0-1.58-3.571C-203.519,486.858-201.268,484.648-198.46,485.741Zm-12.131,3.162c3.051-.938,4.961,1.476,5.669,4.018a4.66,4.66,0,0,0-2.335,1.646,5.025,5.025,0,0,0-.829,2.18,6.887,6.887,0,0,0-3.607-2.2,5.428,5.428,0,0,0-2.19-.007A5.244,5.244,0,0,1-210.591,488.9Zm-7.436,8.662a5.659,5.659,0,0,0-.433,1.029c-3.066-.246-5.879-3.071-4.414-6.2A3.533,3.533,0,0,1-219.2,490.3c1.612.167,2.375,1.159,3.5,2.143a.784.784,0,0,0,.655.194,6.079,6.079,0,0,0,.278,2.146A6.156,6.156,0,0,0-218.028,497.564Zm6.452,6.228a4.555,4.555,0,0,0,0,.581c-3.381.719-6.629-2.812-4.641-6.043a3.924,3.924,0,0,1,4.547-1.831,5.253,5.253,0,0,1,3.088,3.061A4.817,4.817,0,0,0-211.576,503.793Zm10.064,2.288a4.19,4.19,0,0,0,.18.45c-2.69,1.415-7.493,2.192-8.317-1.8a3.677,3.677,0,0,1,3.425-4.127,5.272,5.272,0,0,1,4.385,2.441.8.8,0,0,0,.564.317A4.463,4.463,0,0,0-201.511,506.081Zm.9-3.88a6.4,6.4,0,0,0-5.121-3.071c-.042-.015-.064-.052-.113-.057-1.924-.246-.374-3.285.3-3.932a3.759,3.759,0,0,1,1.511-.876.922.922,0,0,0,.573-.128,3.758,3.758,0,0,1,2.859.775.634.634,0,0,0,.65.086,4.928,4.928,0,0,0,1.644,5.049,3.345,3.345,0,0,0-.822.785.505.505,0,0,0-.084.172A4.14,4.14,0,0,0-200.611,502.2Zm5.541,5.514c-1.686.674-4.163-.035-4.742-1.9-.61-1.961.977-3.809,2.786-4.3a.424.424,0,0,0,.288-.477,3.223,3.223,0,0,1,3.543,1.366A3.805,3.805,0,0,1-195.069,507.715Zm2.857-6.44a5.208,5.208,0,0,0-4.338-1.841,3.483,3.483,0,0,1,.5-6.388c.054-.02.106-.027.162-.044a.778.778,0,0,0,1.213-.044c.034-.044.057-.094.089-.138,2.512.081,3.947,2.822,3.691,5.362A5.228,5.228,0,0,0-192.212,501.275Zm5.79,4.732a4.82,4.82,0,0,1-2.729-.14c-.15-.052-1.346-.758-2.1-1.144a5.28,5.28,0,0,0-.071-1.447.656.656,0,0,0,.632-.691c-.091-1.976,1.061-4.223,3.275-4.365a3.926,3.926,0,0,1,4.05,3.627A4.255,4.255,0,0,1-186.422,506.007Zm2.741-8.29a5.569,5.569,0,0,0-3.979-1.233,4.825,4.825,0,0,0-1.457.4,5.634,5.634,0,0,0-1.412-3.738.575.575,0,0,0,.126-.288c.3-2.124,1.656-4.2,3.92-4.5a.551.551,0,0,0,.63.02c.022-.015.035-.034.054-.049a4.554,4.554,0,0,1,4.154,4.747.826.826,0,0,0,.106.406A5.838,5.838,0,0,0-183.681,497.717Zm2.047,3.627a5.144,5.144,0,0,0-.733-2.129.728.728,0,0,0,.3-.573c.012-2.311,1.115-4.483,3.543-5.012,2.146-.465,5.123.937,5.153,3.418C-173.327,501.255-178.423,502.109-181.634,501.344Zm8.438-7.781A5.89,5.89,0,0,0-180,492.51a6.033,6.033,0,0,0-1.1-3.3.526.526,0,0,0,.477-.3c1.592-2.95,4.761-4.9,8.014-3.017A4.3,4.3,0,0,1-173.2,493.563Zm4.279-5.677a5.683,5.683,0,0,0-1.912-2.977,6.634,6.634,0,0,0-1.976-1.068,6.666,6.666,0,0,1,2.51-4.171c1.673-1.107,3.944-.866,4.825,1.065A5.288,5.288,0,0,1-168.917,487.887Zm2.776-10.5a5.333,5.333,0,0,0-2.535-.315c.03-2.008-1.592-3.364-3.538-4.013a5.518,5.518,0,0,1,1.464-3.779,3.782,3.782,0,0,1,5.31-.148C-163.538,471.164-163.75,475.812-166.141,477.389Z" transform="translate(238.066 -418.36)" fill="#fdecce" stroke="#0b314b" stroke-width="1"/>
    </g>
    <g id="Group_35" data-name="Group 35" transform="translate(-1346.867 482.24)">
      <path id="Path_167" data-name="Path 167" d="M-71.723,249.41c-.389-5.711-3.073-10.923-9.075-12.225-2.362-.512-7.766.268-10.15,2.685-.076-1.543-.172-3.073-.276-4.577a1.071,1.071,0,0,0-.768-.979,1.056,1.056,0,0,0-.325-.751c-8.2-8.214-20.507-10.323-31.7-10.825-12.82-.573-26.979,1.356-38.2,7.874a.538.538,0,0,0,.413.979c11.255-3.664,22-7.124,34.014-7,11.546.123,25.335,2.042,33.837,10.606a1.071,1.071,0,0,0,.576.3c.428,11.629,1.186,23.884-4.695,34.415-6.518,11.669-20.82,15.889-33.525,15.052-12.677-.834-24.555-8.059-29.039-20.308-3.782-10.33-2.133-21.782-1.388-32.481a.581.581,0,0,0-1.137-.155c-2.217,11.821-3.538,25,1.767,36.224-5.731-.49-12.22.049-15.707,5.3-2.938,4.427-1.769,9.924,1.417,13.886,8.674,10.783,28.6,13.28,41.4,13.95a117.23,117.23,0,0,0,24.592-1.417c6.836-1.09,15.721-2.033,21.219-6.735,3.753-3.209,5.93-8.374,3.543-13.049-2.276-4.454-7.695-6.174-12.158-7.419a34.309,34.309,0,0,0,2.766-5.239,12.482,12.482,0,0,0,14.88.418C-73.359,263.918-71.251,256.349-71.723,249.41Zm-61.2,37.6c9.331.928,20.133-.795,28.118-6.27.445.672,1.314,1.11,1.786,1.8a6.589,6.589,0,0,1,1.063,2.567c-7.325,6.541-18.032,5.113-27.274,4.55-8.947-.549-23.192.155-30.19-6.518a4.02,4.02,0,0,1-.738-3.137,5.1,5.1,0,0,1,4.252-3.789A36.715,36.715,0,0,0-132.921,287.012Zm45.37,2C-89.817,294-97.9,295.393-102.7,296.451a119.7,119.7,0,0,1-29.029,2.881,89.3,89.3,0,0,1-27.2-4.766c-4.993-1.759-11.629-3.976-14.843-8.46-8.954-12.481,4.725-16.169,13.226-16.211a30.374,30.374,0,0,0,3.536,5.1,5.782,5.782,0,0,0-5.032,4.348c-.672,2.763.824,6.459,3.89,6.856a.464.464,0,0,0,.344-.084c7.106,5.748,20.493,5.01,28.581,5.495,8.987.539,23.763,2.744,29.359-6.5a.733.733,0,0,0-.827-1.058,4.956,4.956,0,0,0-.586-2.35,5.818,5.818,0,0,0-1.922-2.143,26.378,26.378,0,0,0,4.1-3.986c.347-.423.659-.861.977-1.3a.924.924,0,0,0,.458.32C-90.889,276.692-83.748,280.654-87.55,289.013Zm-3.233-41.655c2.554-1.09,5.1-2.478,7.9-1.184,3.563,1.651,3.391,5.5,2.549,8.684-1.287,4.872-6.477,9.9-11.29,5.605a.678.678,0,0,0-.463-.172A64.666,64.666,0,0,0-90.784,247.358Zm16.728,6.971c-1.314,9.127-10.453,17.916-19.437,11.034.423-1.216.768-2.458,1.078-3.711a6.8,6.8,0,0,0,8.206,1.661c3.455-1.577,5.33-5.374,6.073-8.925.736-3.514.386-7.517-2.9-9.609-2.953-1.885-6.887-1.312-9.744.519-.007-.807-.02-1.612-.044-2.414.659-1.609,4.535-3.369,5.652-3.7a9.67,9.67,0,0,1,8.229,2.092C-73.532,244.326-73.453,250.136-74.056,254.329Z" transform="translate(178.788 -189.728)" fill="#fdecce" stroke="#0b314b" stroke-width="1"/>
      <path id="Path_168" data-name="Path 168" d="M-110.046,228.893c-1.061-.359-1.818,1.363-.773,1.836q-2.4,1.266-4.8,2.537-2.181.159-4.365.219-2.912.1-5.824.081c-4.867-.03-9.717-.3-14.565-.711-1.12-.1-2.234-.214-3.351-.32-1.08-5.18-7.628-5.859-11.223-2.746a8.8,8.8,0,0,0-1.248,1.373c-4.567-.635-13.032-2.092-11.676-4.068.413-.6-.487-1.243-.984-.76q-.96.934-1.917,1.865a.9.9,0,0,0,.18,1.4,46.884,46.884,0,0,0,13.317,3.329c-2.136,4.294-2.207,10.448.566,13.888a32.9,32.9,0,0,1-3.5,1.777c-.655.281-.33,1.085.221,1.25a.3.3,0,0,0-.007.14c.861,2.37,1.9,4.661,2.69,7.06a59.69,59.69,0,0,0,2.151,6.6.872.872,0,0,0,1.144.389.606.606,0,0,0,.743.283,29.611,29.611,0,0,0,14.142-8.708,1.107,1.107,0,0,0,.187-.327.815.815,0,0,0,.108-.93c-1.316-2.2-4.063-3.807-6.063-5.377-2.136-1.681-4.355-3.246-6.58-4.806a.533.533,0,0,0-.357-.1.729.729,0,0,0-.839.059c-.893.672-1.789,1.282-2.694,1.863-1.3-3.519-1.89-7.7-.563-11.295a7.127,7.127,0,0,1,.785-1.506c1.528.172,3.059.332,4.592.5a247.057,247.057,0,0,0,27.661,1.877c2.84-.007,12.732,1.25,14.646-2.343C-107.123,231.118-108.071,229.563-110.046,228.893Zm-41.647,16.836c1.951,1.838,3.91,3.664,5.972,5.379a43.774,43.774,0,0,0,4.385,3.627,34.552,34.552,0,0,1-12.075,8.138c-.374-4.5-3.086-9.614-5.837-13.1A15.405,15.405,0,0,0-151.694,245.729Zm-1.762-14.22-.135-.017c2.591-2.126,6.346-2.515,8.184.881Q-149.434,231.97-153.456,231.509Z" transform="translate(190.13 -184.583)" fill="#fdecce" stroke="#0b314b" stroke-width="1"/>
      <path id="Path_169" data-name="Path 169" d="M-114.822,229.727c-7.237-4.186-17.257-4.208-25.394-4.867-9.488-.77-19.024-.549-27.845,3.324-.467.207-.133.95.345.814a75.62,75.62,0,0,1,26.15-2.751c8.221.578,18.416,1.021,25.746,5.19A.991.991,0,0,0-114.822,229.727Z" transform="translate(194.128 -187.009)" fill="#fdecce" stroke="#0b314b" stroke-width="1"/>
      <path id="Path_170" data-name="Path 170" d="M-153.541,240.541a.75.75,0,0,0-.229-.512,49.536,49.536,0,0,0-4.464-3.615c-.042-.052-.062-.121-.128-.15-.042-.017-.081-.025-.123-.039l-.288-.219a.717.717,0,0,0-1.085.445c-.214.128-.428.273-.657.411-.854.517-1.71,1.026-2.544,1.575a.687.687,0,0,0-.345.6c.017.135.01.337.133.433l.071.057a.739.739,0,0,0,.839.108c.854-.4,1.688-.842,2.527-1.275.29-.15.627-.293.935-.468,1.218,1.1,2.444,2.207,3.755,3.179-.657.615-1.22,1.368-1.927,1.919a10.691,10.691,0,0,1-3.4,1.732c-.915-1.9-1.951-3.738-2.995-5.571-.281-.492-1.161-.16-.942.4.822,2.1,1.649,4.2,2.618,6.228a.7.7,0,0,0,1.019.317.657.657,0,0,0,.241.007,10.767,10.767,0,0,0,4.4-1.708c1.122-.755,2.532-1.828,2.778-3.236A.733.733,0,0,0-153.541,240.541Z" transform="translate(199.75 -170.401)" fill="#fdecce" stroke="#0b314b" stroke-width="1"/>
      <path id="Path_171" data-name="Path 171" d="M-156.523,231.473a4.79,4.79,0,0,1-3.676-2.188c-1.011-1.813-.16-2.709.148-4.41a5.145,5.145,0,0,0-.426-3.6,8.379,8.379,0,0,0-3.11-2.832,13,13,0,0,1-4.7-4.016c-.44-.635-1.636-.672-1.809.236-.347,1.811.46,2.977,1.89,4.149a25.443,25.443,0,0,0,2.852,1.75,7.136,7.136,0,0,1,1.89,1.371c1.166,1.363.529,2.542.349,4.227-.4,3.76,2.35,7.367,6.366,6.961C-155.9,233.031-155.512,231.616-156.523,231.473Z" transform="translate(191.374 -202.412)" fill="#fdecce" stroke="#0b314b" stroke-width="1"/>
      <path id="Path_172" data-name="Path 172" d="M-155.015,217.329c1.154-2.291.463-5.012-.364-7.276a1.13,1.13,0,0,0-2.178.6c.77,3.342.647,3.932-1.262,7.008-.29.47-.97.608-1.08,1.211-.411,2.229.544,2.062,1.277,4.146,1.826,5.19-1.619,4.614-2.045,8.541a5.519,5.519,0,0,0,2.037,4.872c.608.541,1.71-.172,1.193-.92-2.847-4.114,2-5.65,2.815-8.979.492-2.013-.679-2.717-1.351-4.331C-157.067,219.573-156.188,219.651-155.015,217.329Z" transform="translate(205.208 -209.267)" fill="#fdecce" stroke="#0b314b" stroke-width="1"/>
      <path id="Path_173" data-name="Path 173" d="M-145.37,212.01a10.5,10.5,0,0,0-2.8,5.893,14.009,14.009,0,0,0-.1,3.366c.17,2.195.4,2.53-2.156,3.785-1.169.573-2.348.436-2.948,1.853-.7,1.661.546,3.826,1.489,5.091a.433.433,0,0,0,.778-.1c.738-1.944-1.149-3.507,1.169-4.528,1.472-.65,2.7-.145,3.777-1.668a5.41,5.41,0,0,0,.618-3.519,16.07,16.07,0,0,1,1.959-8.794C-143.027,212.271-144.425,211.048-145.37,212.01Z" transform="translate(215.61 -205.767)" fill="#fdecce" stroke="#0b314b" stroke-width="1"/>
      <path id="Path_174" data-name="Path 174" d="M-132.822,213.55c-2.37.394-2.335,3.243-3.73,4.808-.733.822-1.432,1.174-1.846,2.293-.556,1.5-.093,3.135-.583,4.641a3.7,3.7,0,0,1-2.741,2.805c-1.383.4-2.2-.153-3.585-.175a3.5,3.5,0,0,0-1.986.4c-1.654,1.066-1.486,3.241-.994,4.88a.847.847,0,0,0,1.656-.224c-.039-3.6,3.878-1.636,6.083-2.355a6.974,6.974,0,0,0,3.7-2.879c1.528-2.478.482-4.907,2.475-7.38a9.313,9.313,0,0,0,1.479-1.809c.492-.984.32-2.19,1.267-2.96C-130.571,214.741-131.762,213.375-132.822,213.55Z" transform="translate(222.845 -203.033)" fill="#fdecce" stroke="#0b314b" stroke-width="1"/>
    </g>
    <g id="Group_36" data-name="Group 36" transform="translate(-1373.333 1010.866)">
      <path id="Path_175" data-name="Path 175" d="M-42.1,274.794a.654.654,0,0,0-.241-.06c.015-.1.041-.189.054-.29.057-.459-.418-.7-.816-.65a5.666,5.666,0,0,0,1.777-4.961.73.73,0,0,0-.7-.68c1.588-1.439,2.224-3.4.432-5.813a4.788,4.788,0,0,0,.912-4.981.675.675,0,0,0-1.3.359c1.766,8.981-32.562,7.945-38.606,7.543a79.1,79.1,0,0,1-17.2-2.974c-3.182-.943-18.56-5.7-17.841-10.793a.292.292,0,0,0,.174-.114,10.049,10.049,0,0,0,1.012-2.034,25.079,25.079,0,0,0,6.947,5.577c7.19,4.084,15.7,5.274,23.779,6.334,9.555,1.255,19.317,1.808,28.854.1,4.494-.8,15.18-2.352,14.141-9.021a.662.662,0,0,0-.849-.493c.009-.012.022-.022.029-.034,6.047-9.329-25.294-14.842-29.863-15.51a144.693,144.693,0,0,0-24.856-1.476c-5.227.141-14.04-.845-17.545,4.033a.659.659,0,0,0,.2.919,6.424,6.424,0,0,0,.023,2.39.512.512,0,0,0-.327.152c-.43.513-.909.985-1.327,1.508a.5.5,0,0,0-.011.564,3.607,3.607,0,0,0,.02,3.72.614.614,0,0,0-.1.184,14.491,14.491,0,0,0-.574,2.195.417.417,0,0,0-.421.2c-2.97,5.053,7.29,8.847,10.5,10.263a75,75,0,0,0,24.361,5.824c9.941.793,19.935.04,29.814-1.144,2.648-.316,6.5-.783,8.939-2.376,3.195,4.708-3.141,5.657-5.238,5.984-1.6.25-3.224.373-4.837.528-3.03.293-6.062.565-9.1.774a146.76,146.76,0,0,1-19.133.227,83.434,83.434,0,0,1-17.712-2.912c-3.517-1-19.906-5.7-17.1-11.73.146-.316-.243-.687-.513-.4-4.576,4.906,5.4,9.04,8.561,10.451a77.274,77.274,0,0,0,26.764,6.1,176.753,176.753,0,0,0,32.52-1.419,13.531,13.531,0,0,0,5.77-2.15.683.683,0,0,0-.023.117c-.035,7.83-14.637,7.033-20.065,7.282a142.331,142.331,0,0,1-18.276-.341,136.945,136.945,0,0,1-18.645-2.822c-3.668-.823-20.147-4.847-16.958-11.529.16-.332-.29-.765-.553-.427a4.2,4.2,0,0,0-.874,4.382c-3.694-.419-8.323-.336-10.027,3.62a5.067,5.067,0,0,0-.432,1.986c-1.221,6.093,6.8,13.128,10.845,16.227,7.824,6,17.358,9.157,26.9,11.163,10.57,2.221,21.3,3.342,31.987,1.224,8.2-1.627,17.921-4.718,22.142-12.576a5.8,5.8,0,0,0,1.925-3.273C-33.953,279.118-38.588,276.45-42.1,274.794Zm-70.306-35.362c3.62-3.963,13-3,17.91-3.076a141.959,141.959,0,0,1,17.628.808A122.768,122.768,0,0,1-59.483,240.2a53.262,53.262,0,0,1,8.077,2.726,35.434,35.434,0,0,1,4.087,2.057l1.321.829q3.6,1.11,1.439,4.038c-.935,2.944-.825,2.442-3.57,2.921-1.634.284-3.279.522-4.924.728q-4.3.535-8.629.745a117.736,117.736,0,0,1-17.307-.436C-85.468,253.167-113.8,250.5-112.408,239.433Zm-1.616,4.787a.4.4,0,0,0,.037-.324c.243-.207.485-.412.731-.614,3.39,8.468,25.123,10.967,30.614,11.695a117.359,117.359,0,0,0,24.418.682c3.525-.27,7.051-.685,10.535-1.292,1.722-.3,4.113-.554,5.539-1.854,0,.008,0,.014,0,.023.657,6.8-16.431,7.881-20.422,8.137a104.48,104.48,0,0,1-18.617-.694,103.974,103.974,0,0,1-17.832-3.244C-102.5,255.7-117.346,250.017-114.024,244.22Zm-2.983,22.849c5.975,6.357,28.911,9.557,32.442,9.937A142.026,142.026,0,0,0-55,277.114c3.361-.339,8.472-.673,11.412-2.909a.363.363,0,0,0-.023.061c-.983,6.892-12.972,7.859-18.405,8.426a85.367,85.367,0,0,1-18.629-.215,129.119,129.119,0,0,1-20.055-4.064c-5.205-1.461-13.23-2.832-16.7-7.512A5.54,5.54,0,0,1-117.006,267.069Zm57.777,31.161c-9.655,1.871-19.208,1.048-28.8-.794-8.322-1.6-16.653-3.886-24.02-8.188-4.451-2.6-12.208-8.053-14.622-14.029a14.922,14.922,0,0,0,2.5,2.107c11.47,7.864,26.215,11.12,39.642,13.621,12.784,2.382,26.318,3.769,38.985.028a34.2,34.2,0,0,0,6.766-2.5C-43.38,294.517-52.084,296.844-59.229,298.229Zm20.852-11.707c-1.468,1.553-4.754,2.2-6.784,2.825a55.578,55.578,0,0,1-12.378,2.269c-8.63.631-17.3-.419-25.774-2A155.784,155.784,0,0,1-107.2,283.6a91.6,91.6,0,0,1-12.1-5.354c-1.819-.966-4.7-2.156-5.969-3.838q-1.6-8.211,4.714-7.869c.925-.041,1.851-.035,2.777,0a4.7,4.7,0,0,0-.559,3.1.3.3,0,0,0-.33.369c1.954,5.638,9.378,6.873,14.39,8.414a130.4,130.4,0,0,0,25.331,5.437A79.363,79.363,0,0,0-53.5,282.546c4.17-.946,9.349-2.307,10.845-6.558C-39.067,277.693-32.867,280.694-38.378,286.523Z" transform="translate(128.709 -234.777)" fill="#fdecce" stroke="#0b314b" stroke-width="1"/>
      <path id="Path_176" data-name="Path 176" d="M-55.6,246.151a.682.682,0,0,0-.991.762c.194.84.491,2.543-1.39,1.94-.731-.235-1.17-1.375-1.4-2.011a22.74,22.74,0,0,0-1.153-3.187c-.923-1.756-2.438-3.172-4.513-3.135a.83.83,0,0,0-.773.637.542.542,0,0,0-.278.534,35.306,35.306,0,0,0,1.173,5.178,6.64,6.64,0,0,1,.35,2.6c-.37,1.622-2.141.1-2.66-.812-1.072-1.878-1.482-4.053-2.553-5.9-.568-1.822-3.54-4.915-5.491-3.3-.934.774-.814,2.5-.688,3.559.269,2.238,1.482,4.62.664,6.8a1.744,1.744,0,0,1-1.259-.728,7.118,7.118,0,0,1-.5-2.164,23.93,23.93,0,0,0-1.216-4.153,8.949,8.949,0,0,0-2.757-3.668c-1.29-1.666-4.015-2.457-5.218-.233a4.843,4.843,0,0,0-.221,3.29c.425,2.029,2.485,5.142,1.39,7.2a2.118,2.118,0,0,1-.386-.069q-1.325.666-1.7-.779a9.969,9.969,0,0,1-.707-2.1c-.339-1.295-.584-2.619-.98-3.9a10.4,10.4,0,0,0-1.954-3.755.672.672,0,0,0-.089-.851c-1.553-1.541-4.566-1.957-5.543.441a6.141,6.141,0,0,0,.167,3.889c.441,1.576,2.213,4.17,1.547,5.883-1.478.324-2.588.367-3.62-1.3a26.8,26.8,0,0,1-1.776-4.577c-.7-1.82-1.547-5.027-3.6-5.645a.138.138,0,0,0-.134.042.585.585,0,0,0-.077-.106c-1.367-1.3-3.4.1-3.993,1.547a5.458,5.458,0,0,0-.129,3.146c.124.636.373,1.259.455,1.9a1.128,1.128,0,0,1-.481,1.458,12.842,12.842,0,0,1-1.206-1.636c-.421-.8-.7-1.668-1.153-2.445a4.614,4.614,0,0,0-3.5-2.537,2.575,2.575,0,0,0-1.376,4.774.4.4,0,0,0,.485-.63c-.88-.826-.324-2.779,1.046-2.5,1.2.243,1.878,1.62,2.33,2.62.6,1.338,1.276,3.219,2.835,3.609a2.029,2.029,0,0,0,2.471-.957,4.832,4.832,0,0,0-.052-3.379,4.159,4.159,0,0,1-.048-2.9c.459-.8,1.207-.78,2.007-.9a.5.5,0,0,0,.3-.163c.127,1.613,1.415,3.454,1.941,4.809.765,1.963,1.16,4.265,2.453,5.978,1.226,1.622,5.534,3.379,6.214.367a.588.588,0,0,0-.078-.439,5.4,5.4,0,0,0-.309-3.679,31.537,31.537,0,0,1-1.078-3.513c-.206-.985-.562-2.659,1.379-2.656a3.822,3.822,0,0,1,1.2.413c1.433,2.112,1.8,4.5,2.342,7,.384,1.788.8,3.875,2.246,5.142,1.878,1.651,6.2.321,4.706-2.485a.636.636,0,0,0-.4-.315,8.459,8.459,0,0,0-.343-2.734c-.324-1.306-.832-2.593-1.029-3.923a1.623,1.623,0,0,1,1.428-1.955c.247-.008,1.387,1,1.68,1.158a.707.707,0,0,0,.318.086,14.363,14.363,0,0,1,2.133,5.311c.4,1.8.5,4.1,1.651,5.626,1.935,2.551,4.8.407,4.463-2.328a.759.759,0,0,0-.447-.631,7.574,7.574,0,0,0,.038-2.531,30.616,30.616,0,0,1-.7-4.1c0-1.673.625-1.178,1.611-.293a6.458,6.458,0,0,1,1.2,1.771.8.8,0,0,0,.475.4c1.04,3.474,1.854,8.6,5.674,8.492,4.276-.124,2.255-7.2.8-10.2,3.56,1.364,2.189,7.3,6.13,8.491C-55.554,251.621-52.925,247.693-55.6,246.151Z" transform="translate(135.233 -234.106)" fill="#fdecce" stroke="#0b314b" stroke-width="1"/>
    </g>
    <path id="Path_185" data-name="Path 185" d="M-80.69,276.07c-11.519-13.7-28.081-24.639-46.66-22.127-12.355,1.671-22.813,7.879-32.055,15.785a1.051,1.051,0,0,0-.16-.209c-11.893-10.3-26.706-20.316-43.271-17.811-13.9,2.1-25.075,12.82-30.66,25.325-13.741,30.769,9.038,62.487,34.966,77.819,30.429,18,69.443,19.58,99.734.443,13.113-8.285,26.354-21.1,30.564-36.517C-64.033,303.4-70.852,287.773-80.69,276.07Zm-11.336,70.873c-24.405,19.873-57.905,24.112-87.261,13.787-27.181-9.557-55.828-33.741-55.629-64.982.1-15.662,9.306-31.866,23.645-38.68,18.076-8.59,36.322,2.663,49.814,14.343.025.022.052.025.074.042-2.564,2.3-5.02,4.739-7.414,7.217-15.593-17.146-48.5-14.983-52.5,11.565-1.974,13.071,7.53,23.687,16.632,31.654a123.371,123.371,0,0,0,13.94,10.588,1.3,1.3,0,0,0,1.654,1.061,96.335,96.335,0,0,0,23.135,10.677c24.425,7.392,59.251,3.027,73.117-21.378,12.936-22.769-7.941-50.188-31.691-52.277-34.639-3.049-53.926,32.506-65.376,59.684-2.237-1.452-4.4-2.995-6.511-4.6,6.7-13.418,13.278-25.953,21.876-38.365a.332.332,0,0,0,.052-.261c10.441-11,21.317-22.117,35.7-27.737,16.56-6.472,32.653-2.625,46.079,8.509,12.121,10.052,23.163,24.986,23.017,41.409C-69.816,324.5-80.7,337.718-92.026,346.943Zm-85.92-57.12c-8.676,9.857-16.211,22.082-20.153,34.511a100.436,100.436,0,0,1-11.555-10.748c-11-12.023-13.113-29.2,1.481-39.548,12.242-8.681,28.308-4.065,38.591,5.433-2.931,3.071-5.753,6.213-8.477,9.319A.7.7,0,0,0-177.947,289.823Zm70.5,44.753c-10.46-21.14-25.559-40.035-44.95-53.6a54.522,54.522,0,0,1,5.485-3.169c22.609-11.186,53.006.785,55.152,28.013C-90.749,318.6-97.588,328.116-107.443,334.575Zm-46.234-52.762c18.384,15.005,33.591,32.7,44.074,54.1a62.069,62.069,0,0,1-10.911,5,1.08,1.08,0,0,0-.064-.655c-8.544-19.688-23.886-38.8-40.227-52.688A59.431,59.431,0,0,1-153.677,281.813Zm13.96,31.918c6.563,8.79,11.661,18.249,17.395,27.545a1.1,1.1,0,0,0,.165.184,72.413,72.413,0,0,1-24.479,3.534c-14.289-.6-28.6-5.7-41.172-13.438,6.951-15.256,14.2-31.408,26.123-43.121A284.139,284.139,0,0,1-139.717,313.731Z" transform="translate(-888.031 727.4)" fill="#fdecce" stroke="#0b314b" stroke-width="1"/>
    <path id="Path_191" data-name="Path 191" d="M-7.774,494.981c-1.722-3.817-5-6.545-8.578-8.578-5.382-3.051-15.6-3.989-17.865-10.278,6.513-1.612,14.37-3.58,15.451-10.8,2.66-17.8-19.691-26.042-33.48-24.4-15.47,1.85-31.615,12.131-33.975,28.6-1.57,10.953,5.561,26.91,17.181,27.835a6.92,6.92,0,0,0,5.49.33,1.1,1.1,0,0,0,1.164-.14,37.96,37.96,0,0,0,7.884-7.911c.539-.679,1.058-1.324,1.572-1.946,5.689,9.434,6.824,22.525,16.186,29.351,7.321,5.335,14.808,3.337,21.415-2.082C-9.447,510.139-4.277,502.729-7.774,494.981ZM-27.6,484.55c6.577,2.753,15.254,6.91,17.55,13.024-3-3.248-6.969-5.219-10.93-7.476a123.752,123.752,0,0,1-17.764-12.734c.185-.062.349-.128.541-.185.534-.162,1.1-.32,1.688-.472C-35.484,481.218-31.635,482.859-27.6,484.55ZM-63.337,494.84c-16.927,1.132-24.863-18.194-18.113-32.284,6.486-13.546,23.337-20.579,37.73-19.033,7.958.854,15.7,4.653,19.791,11.811,3.327,5.82,2.65,12.345-3.745,15.756-3.076,1.641-6.787,2.163-10.121,3.068-4.779,1.3-9.186,2.972-12.835,6.422C-55.312,485.008-58.184,490.852-63.337,494.84ZM-40.895,508.3c-4.2-7.133-5.837-15.032-10.623-21.819,4.383,6.356,8.7,12.744,12.761,19.312,2.2,3.563,4.072,7.818,7.023,10.886C-35.555,515.286-38.7,512.023-40.895,508.3Zm16.154,8.7a11.939,11.939,0,0,1-3.086.381C-33.5,513.6-36.879,505.067-40.6,499.592q-4.935-7.257-10.421-14.107c.253-.278.507-.568.763-.834,10.244,9.488,16.986,21.74,26.211,32.127C-24.278,516.849-24.5,516.938-24.741,517Zm2.726-.967c-9.215-10.574-16.233-23.532-27.424-32.22a28.759,28.759,0,0,1,2.621-2.306c9.188,10.734,18.4,22.109,28.689,31.755a.849.849,0,0,0,.472.226A21.156,21.156,0,0,1-22.014,516.032Zm8.772-6.767a28.3,28.3,0,0,1-3.509,3.509.887.887,0,0,0-.185-.706c-8.615-11.083-19.016-21.261-28.81-31.359a24.178,24.178,0,0,1,2.584-1.523c1.575,4.934,8,9.053,11.332,12.313,5.886,5.758,11.851,11.326,18.947,15.569a1,1,0,0,0,1.014-1.735,100.277,100.277,0,0,1-16.5-12.987q-3.436-3.2-6.865-6.413c-2.2-2.055-5.578-4.309-6.927-7.254.659-.305,1.361-.591,2.094-.864a77.559,77.559,0,0,0,12.739,10.657c5.975,4.045,13.475,6.629,17.663,12.778a.966.966,0,0,0,.16.157C-9.691,503.778-10.818,506.386-13.242,509.265Z" transform="translate(-1877.181 557.061)" fill="#fdecce" stroke="#0b314b" stroke-width="1"/>
  </g>
</svg>
